/* XPM */
static char *player31678500719[] = {
/* columns rows colors chars-per-pixel */
"64 64 241 2 ",
"   c #010102",
".  c #0B0204",
"X  c #010A04",
"o  c #0A0A06",
"O  c #01020A",
"+  c #0B040B",
"@  c #020A0C",
"#  c #0A0A0A",
"$  c #130B0E",
"%  c #14060C",
"&  c #04120C",
"*  c #0D130E",
"=  c #11140E",
"-  c #000411",
";  c #030C13",
":  c #0D0D13",
">  c #0A0E1A",
",  c #130C12",
"<  c #1B0C15",
"1  c #021315",
"2  c #0B1414",
"3  c #02131B",
"4  c #0C131A",
"5  c #091918",
"6  c #141414",
"7  c #191415",
"8  c #13141B",
"9  c #151B1C",
"0  c #1B1B1C",
"q  c #181816",
"w  c #14231C",
"e  c #0F2016",
"r  c #091923",
"t  c #141C24",
"y  c #1B1C23",
"u  c #171F2A",
"i  c #221B25",
"p  c #0A2728",
"a  c #1B2124",
"s  c #17262B",
"d  c #192932",
"f  c #0C2E32",
"g  c #232323",
"h  c #24232B",
"j  c #29232B",
"k  c #2B2B2C",
"l  c #2B2A27",
"z  c #292C35",
"x  c #293636",
"c  c #323232",
"v  c #38383A",
"b  c #31342D",
"n  c #21111B",
"m  c #37433A",
"M  c #4A423F",
"N  c #133A46",
"B  c #303944",
"V  c #1E4544",
"C  c #384647",
"Z  c #2A545D",
"A  c #365656",
"S  c #2D4B55",
"D  c #1B5C6C",
"F  c #375963",
"G  c #295769",
"H  c #1D6570",
"J  c #39666B",
"K  c #276776",
"L  c #386D7A",
"P  c #494949",
"I  c #424747",
"U  c #49534B",
"Y  c #485757",
"T  c #525956",
"R  c #484B53",
"E  c #55635B",
"W  c #666B5C",
"Q  c #4E5B65",
"!  c #48666B",
"~  c #596A66",
"^  c #466C77",
"/  c #536E77",
"(  c #47747B",
")  c #587779",
"_  c #47716D",
"`  c #6A6A6B",
"'  c #626564",
"]  c #69776B",
"[  c #677478",
"{  c #7B7C79",
"}  c #767976",
"|  c #726F6B",
" . c #79867B",
".. c #8D917F",
"X. c #377886",
"o. c #2B7687",
"O. c #447B84",
"+. c #487A88",
"@. c #567A85",
"#. c #597E97",
"$. c #47738C",
"%. c #627F9C",
"&. c #647E8B",
"*. c #39818E",
"=. c #3A8894",
"-. c #48838B",
";. c #548A8C",
":. c #4C8492",
">. c #4A8B95",
",. c #458797",
"<. c #538C94",
"1. c #5B8B94",
"2. c #5B8B9C",
"3. c #558797",
"4. c #489299",
"5. c #53939A",
"6. c #5A9497",
"7. c #668688",
"8. c #768989",
"9. c #668A92",
"0. c #768692",
"q. c #64959C",
"w. c #66979B",
"e. c #749698",
"r. c #7F9181",
"t. c #4A8BA4",
"y. c #548CA5",
"u. c #4B92A3",
"i. c #4998A5",
"p. c #5395A3",
"a. c #549BA4",
"s. c #559BAB",
"d. c #5C99A7",
"f. c #5C9AB5",
"g. c #648DA3",
"h. c #639BA1",
"j. c #6697A6",
"k. c #769BA7",
"l. c #689AB5",
"z. c #769AB0",
"x. c #54A1AC",
"c. c #59A3B3",
"v. c #4EA0AB",
"b. c #68A2A9",
"n. c #78A6A9",
"m. c #6AA6B6",
"M. c #78A9BC",
"N. c #73ACC6",
"B. c #76C4D1",
"V. c #878985",
"C. c #87958C",
"Z. c #93958B",
"A. c #898F90",
"S. c #889996",
"D. c #989B99",
"F. c #93A399",
"G. c #99A799",
"H. c #8AA89E",
"J. c #A3A796",
"K. c #AFB198",
"L. c #889CA5",
"P. c #879DAD",
"I. c #86A6A7",
"U. c #97A8A7",
"Y. c #88A9B6",
"T. c #8CB3BC",
"R. c #88B4B6",
"E. c #99B4B6",
"W. c #9AB1AB",
"Q. c #A4A5A4",
"!. c #A8ACA6",
"~. c #A7B6A9",
"^. c #B3B9AB",
"/. c #B6B9A7",
"(. c #ACBAB4",
"). c #B4BEB4",
"_. c #B8B9B7",
"`. c #AAC4B8",
"'. c #B4C4BB",
"]. c #BBCABB",
"[. c #B7C6B8",
"{. c #BBC3AE",
"}. c #C5C6AD",
"|. c #C4CCBB",
" X c #C7CAB8",
".X c #CBD1BD",
"XX c #D6D6B9",
"oX c #D0CFB3",
"OX c #8BBCC4",
"+X c #8FB5C9",
"@X c #A3BBC7",
"#X c #99C3C6",
"$X c #99CCD6",
"%X c #A5C7C9",
"&X c #BBCDC3",
"*X c #B7C8C5",
"=X c #B6D3CB",
"-X c #BBDAD5",
";X c #BCCEDA",
":X c #BAE2DB",
">X c #BEE5E2",
",X c #A6D4E3",
"<X c #C3CCC3",
"1X c #C7C8C5",
"2X c #CCD5C6",
"3X c #C8D8CA",
"4X c #D2D6C1",
"5X c #D2DCCC",
"6X c #D7DBC7",
"7X c #C6D9D5",
"8X c #D7DAD6",
"9X c #DAE0CC",
"0X c #C3E1DC",
"qX c #C7E4D7",
"wX c #DBE4D4",
"eX c #DAE6DA",
"rX c #E3E4CC",
"tX c #E3E4C7",
"yX c #E4ECDC",
"uX c #E7ECD7",
"iX c #EDF2DC",
"pX c #E4F0DD",
"aX c #F3F5DC",
"sX c #F9F7D8",
"dX c #F4EECA",
"fX c #CAECE6",
"gX c #D8E9E3",
"hX c #DBFAF7",
"jX c #DEEDE9",
"kX c #E6F3E3",
"lX c #EBF5E4",
"zX c #EAF8E9",
"xX c #FBFCE4",
"cX c #F3FDED",
"vX c #FEFFEB",
"bX c #F5F9E4",
"nX c #E2FFFE",
"mX c #FBFFF3",
"MX c #F4FFF8",
"NX c #F4FFF4",
"BX c #E6EAE8",
/* pixels */
"        o 6 :     o = +       o X   X       .   + . O , y O a ; - r C - u O ; O ; O o                 o                         ",
"          o o                 X             O . i O : > O Q O 4 > t O h - ; O h O X                                             ",
"  o o     O o o O           O o   X   X     o O   O j O t B U.Q L.i u > t 4 O 9 o @                                             ",
"        # # #   o     o       o   X           . , j   u O z 0.C B Q - d O O t   O @                                             ",
"        # o           # o     #     X       . O v   O   u [ s r B B U.t O @ 2 O O O                                             ",
"                #             2 X             .   B - O jXU.x 8.[ BXP.gX  4 X O X           .   o                               ",
"            6 c I 0     O     o X       .     O j ; 8 *X[ L.7XT A.D.<X(.; 9   9 X           o   : o O                           ",
"    # o     c ` 8.M $   = o                 O     O ; 2 P.E.! / 0.U.Q.C.  & 9                 + 6 = #                           ",
"      O     l ' D.P     #     o               O ;   5 0.E.7X%X>X7X<XeX'.jX  X 9 X X             M h #     O         #     O o   ",
"o     o     6 v P 7     o     # X   o o 6 6 : O   2 O S.E.e.%XH.~ D.BX1X<X                  .   0 6 O     o o     o o o o # o   ",
"o     o o     o =     o o       #     # g h 6   4   x U.H.7./ C E  .eX7X[.* * X X           O         o o               : o     ",
"      O o       . o o O O       o       7 0 ,   O ;   / ~ 7.nX0X&X..G.).J.e X X             . o     o                   o       ",
"      o       #   o       # #   o             O 9   (.L.7.nX>XhXNX[.~.[.~.U * X X           O O   o o       # q # o o         # ",
"    #         # h 0       o     o o o       O O X 4 U.9.8.:XhXnXqXeXcXpX2X^.U =   X         .   6 # #     * g c o # O     O     ",
"  o o O     o # c 0 6 o           o o o     O # 2 @ -XS.e.#X_ 7.] .XzXpX2X<Xm * X           O O # O     o # 0 g         6 l 0   ",
"        X # # # o       o     #       . . . X O @ ; 7.;.H.n.n.`. .9XlXcX9X[.q o X             .                   + o # c ' P 6 ",
"                                O O   . % .     3 p +X1.@.k.J hXpXbX.X/.!.g #                                       o g ` D.| 0 ",
"                                O O . . . .   X - f y.g.1.M.R.=XyXaX9X XJ.W 6 0 O   O O                                 c P c   ",
"                                y 8 +   . . o @ f T.y.L 1.w.%XfXwXaXbX4X..}         O                                   # 7 O   ",
"                                z h < % . . O ; O ^ j.M.( O.fX%XlXvXbX XV.{ 0     O   O                         #     o #     # ",
"                                y 8 % . . .     r j.g.:.n.6.n.pXcXvXuX/.!.V.{ i O O   O                               o # X   # ",
"                                O     . . o O o %Xj.j.j. .h.#XfXeXxXaX2X.X{ |                                           o       ",
"                                O O   . . o # 1 7.k.-.,.m.m.n.:X5XrXiX6X/.V.| <   O O                           O o + X   o     ",
"                                > -     .     @ Y.$Xj.v.=. .OX`.eX X4X/.{  X_.@XO     O                           o o           ",
"                        # o O O O >   7 . q X @ 1.k.2.:.6.w.#X:XmXxX.X6X_.1X_._.  : O O + #                           o         ",
"                      o         O O g   o 0   zX@.q.:.:.6.6.R.=X].vXxX2XK.1X1XQ.O : +   O     o                                 ",
"                                1 8   o o = b   9.3.+.>.h.w.n.:XzXxXvX6X_.Z.V.}   O O O O     +             X O                 ",
"                                O a a   o     -XI.3.:.5.b.h.n.qXcX9XrX2X8XQ.D.A.O     , + X O             o o o             o   ",
"                                1 O     b o   7.@X1.3.5.h.q.w.fXBXbXbX/.1X6X8XQ.j O   , O   #               o O                 ",
"                            X @ O r   o   o *XU.OX1.p.:.5.6.6.qXbXvXvX X/.!._._.` t O ;     6 #             o o     o       .   ",
"                            o # 4 O 9 o b   X 8.I.;.j.,.<.h.1.:X5X4XoX8X_.Q._.8XV.y   ,     6                 o                 ",
"                          o # , z 2       6 7XI.j.-.m.>.5.b.1.-XpXvXtX4XQ.8X!.A.} - O 9 O O 6                               o   ",
"O O O O   O O         o o . g | Z.b 6 8 O u Q &.:.d.p.>.5.n.#XfXiXxXsX/.J.2X).C Y r O 4 O O 8                                   ",
"O O O O O   O           o $ M Z.2X..c   8 - P.$.3.f.a.,.5.j.E.7XvXdXaXdX.X9X7XF.Y O a O O v   6                                 ",
"O O O O O O O   + O       . l | V.E   h - S $.#.2.c.a.,.5.w.R.:XrXsXsX}.J.5X8XC.~ 5 X 4 > O   :                                 ",
"- O O O O     O   o           l b   8 O u 0.S X.5.c.p.4.5.h.R.qXuXsXsX}.J.eXBXC.[ Y 4 t 2   :                                   ",
"O O O   O O           # 6     q e e X 5 + @XG $.p.s.i.4.4.w.R.:XsXXXtX9X XwXlX<XT R ~ X   C     7 6 #                           ",
"O O O O O     O O +     #     2 & X & @ &.A z.#.d.s.i.=.4.;.n.=X9XoXXX}.K.wXlX[.{ E U a 9 a   * b h q #                         ",
"O     O O     O : , O   X     @ X f X / &.@.3.m.c.v.i.4.5.6.n.:XwXsXxX}.K.lXmX<X).U.C T T * & * 0 q 6                           ",
"  O       O     . ;     5 5 X & w W.! / N ,Xy.>.c.v.v.i.a.h.R.fXbXuXiX6X/.4XmXzX5X<X).m U V.s X                                 ",
"O   O   O + O   , y   y O @ X @ & e.! / I.g.z.y.c.i.=.=.v.b.OX>X3XvXiX9XK.uXvXiXlXmX!.!.x I 5X  # q   v :   q                   ",
"O X     # + + .   y i X s X C o  .A e.e.@.g.3.N.i.i.i.i.4.6.R.>XpXvXXX9X/.6XxXlX8X6XuXF.]  .C *     l   o o #                   ",
"@ X   X : + + . v   4 y 1 p X ;.Z n.9.9.z.g.l.f.u.i.v.a.>.;.n.qXcXiX XuX X6XiXbXvX9XvX].^.<Xm ] S.0     k #                     ",
"X X X o + + + . O , O O 1 1 A A V %X;.9.Y.g.M.t.s.v.x.a.-.;.R.qXzXuX{.uX4XrXsXsXvX.XiXyX].`.C.~ P D.k 6     j X                 ",
"X   X o     . . . O y s X R.N  .T.Q P.Y.$.#.g.l.c.f.i.4.-.1.Y.=XkXkX{.XX{.9XsXsXaXxXiXvXcXqX=X] I P   k c o     o               ",
"    X     . . . j   ; 3 8.A n.e.e.%.z.P.%.%.M.l.f.s.u.=.-.1.H.E.jXcX X/...oXsXtXoXaXXX{.zXMX'.*Xv { V.        # # o o           ",
"X X X o .   . . . O # 1 S e.e.;.S @X%.%.Y.%.+X#.t.u.4.4.;.9.e.S.3XkX2X X../.tXXXJ.K...] G.[.W.3XeXQ.'   0     6 # o             ",
"  X o o . . + + < > O I.%X9.1.9.+X$.l.+X$.#.f.f.,.u.s.6.6.q.e.e.W.9X5XyXK.{.oXoXsXtX6XsX X[.NXwXQ.8Xc o   # q   : #             ",
"X = b c % + % + + - r 3 9.k.+.3.N.f.y.y.N.N.v.t.v.t.c.,.m.1.w.E.].pX3X].{.{..X.XyXcXuXcXBXmXlXeX_.1XP + 0   o q                 ",
"    q =   . < + i > - > @.Y.( d.$.t.f.f.t.o.o.B.o.o.p.X.d.+.+.e.`.3X~.G.G.G.].9X2X2XyX^._.!.2X|.BX1XQ.` q #                     ",
"    $ o   . < + + - B &.F j.@.G y.f.t.X.t.t.t.o.*.X.a.>.b.<.:.n.`.qX`..X].F.F.~.G.D.|..X6X^.]._._.Q.BX_.  6                     ",
"X   = 7 + , < . i R - - Y.%XF 1.G $.K D o.D H D H H X.X.-.O.X.n.H.`.~.[.`. . . .C.] T  .U | V.^.Z.D.8X@X  o = h                 ",
"X X X * o , <   - h - t 7X@X^ / ;.3.L 3.b.-.5.m.4.4.a.a.5.s.p.$X-X3X`.].[.H.{.fX~.NXMX5X .5XqX..{ _.Q._.c 7                     ",
"& X X X   6 h < i O h h - > P./ ! b.F Z L <.b.L 4.>.,.,.X.,.X.B.=X-X~.~.~.F.].pXcXC.Z.F.Z.] G.V.Q.!.6 #     g l                 ",
"5 X X X   9 j 0 % > O > t > d - 3 e.<. ._ L h.X.6.d.5.a.*.s.4.,X=XqXqXqXqX`.'.&XW.~.3X . .[.[.* % 7   6 0 g O                   ",
"X X & X   o 6   O < O z O O t O 1 1 X e.`.J J J O.-.O.>.X.p.,.,Xn.=X].].'.H.G.F.C. .H.~.w X X X % . k #   o o 8                 ",
"X X X X         O     O O O O O   X X f X f e.f 9.w.+.O.m.K s.b.:XpXW.`.].fX .`.(.m   X &     q o   o                     $ q   ",
"X X X                           & * X e   o A @ ; 9.+.K G N K OX=Xx A r.m `.].G.m 9   X * * X                                   ",
"  X X                           o 5   6 X   d O r @X) S Z L L #XA U w E ] eX`.5 ' 8.U X X # X   o X                     o     o ",
"X     X                         X =   = 0 X q 8 O L.L.! N S F Y.W.E x m C.(.X U _.8XV.:   o                           o 6     6 ",
". O                               =   . 7 .   %   R L.&./ F / ) C S.A. .2   h : ' A.T . , ,   o                       O # X   # ",
". . .   .                         .   . $ . . % < O y , d s s @ @X    8   9   6 0 k % . $ ,   <               o 6   # o   o 6   ",
"+ . . .                         . . % . % < < n n % i O O O @ a . 7 y 0 ;   o   i 7 +   . + % $           o o   q   $ #   0 v   ",
". + . .                         . . $ . . % % . . n +   9 R X ; 9   ,   . 0   +     % < % % %                   q   = 6   v ' : "
};