/* XPM */
static char *Adobe_20230311_0330361678495024[] = {
/* columns rows colors chars-per-pixel */
"64 64 230 2 ",
"   c #010102",
".  c #040A03",
"X  c #0A0C05",
"o  c #03020B",
"O  c #040C0B",
"+  c #0B0B0B",
"@  c #080507",
"#  c #0C120C",
"$  c #0B1207",
"%  c #12130D",
"&  c #010213",
"*  c #030B13",
"=  c #0C0B13",
"-  c #02041C",
";  c #030A1B",
":  c #0A0D1A",
">  c #090618",
",  c #100F18",
"<  c #0C1413",
"1  c #0B141B",
"2  c #131313",
"3  c #131A12",
"4  c #13111B",
"5  c #1B1B1B",
"6  c #181C1A",
"7  c #192217",
"8  c #23251E",
"9  c #020423",
"0  c #0A0E25",
"q  c #02052A",
"w  c #030A2A",
"e  c #0A0C2C",
"r  c #050B24",
"t  c #100E23",
"y  c #0C1428",
"u  c #151B24",
"i  c #1A1C24",
"p  c #15182A",
"a  c #030A34",
"s  c #0B0D34",
"d  c #050839",
"f  c #0C1234",
"g  c #0D1539",
"h  c #141738",
"j  c #201F31",
"k  c #1B2423",
"l  c #1C2627",
"z  c #1A2438",
"x  c #232323",
"c  c #2D2D2D",
"v  c #262B27",
"b  c #2B322B",
"n  c #32332F",
"m  c #343B2D",
"M  c #252A36",
"N  c #2B3333",
"B  c #2A343C",
"V  c #2A353A",
"C  c #323333",
"Z  c #3B3C3B",
"A  c #353B39",
"S  c #3B453B",
"D  c #43483D",
"F  c #0D154A",
"G  c #0E1545",
"H  c #141B4C",
"J  c #161946",
"K  c #0D1A53",
"L  c #191E5B",
"P  c #161C54",
"I  c #0C0E49",
"U  c #201F47",
"Y  c #1B2347",
"T  c #1A245C",
"R  c #25264C",
"E  c #343C49",
"W  c #272A59",
"Q  c #2C3754",
"!  c #333757",
"~  c #2C3842",
"^  c #192566",
"/  c #1C2B74",
"(  c #162A70",
")  c #222B6B",
"_  c #252B6A",
"`  c #23336A",
"'  c #2B3467",
"]  c #363A6B",
"[  c #232B75",
"{  c #2A337C",
"}  c #2D3677",
"|  c #33377B",
" . c #3B4342",
".. c #394448",
"X. c #394657",
"o. c #384767",
"O. c #2B4379",
"+. c #364279",
"@. c #434342",
"#. c #4C4D4C",
"$. c #454B47",
"%. c #47504B",
"&. c #4C5348",
"*. c #52534C",
"=. c #555B4C",
"-. c #444C57",
";. c #4F5857",
":. c #495357",
">. c #535452",
",. c #535C5D",
"<. c #5C5C5B",
"1. c #575B53",
"2. c #5C6458",
"3. c #63645E",
"4. c #656B5A",
"5. c #616857",
"6. c #68745E",
"7. c #4A5768",
"8. c #575B66",
"9. c #454B79",
"0. c #515877",
"q. c #596169",
"w. c #5C697C",
"e. c #636362",
"r. c #6B6D64",
"t. c #6C6C6B",
"y. c #646B6A",
"u. c #6C7363",
"i. c #6B7266",
"p. c #73776B",
"a. c #656B7C",
"s. c #696B75",
"d. c #6D7578",
"f. c #747472",
"g. c #757A73",
"h. c #7B7C75",
"j. c #7B7B7B",
"k. c #747579",
"l. c #7D8175",
"z. c #7E857A",
"x. c #82847C",
"c. c #85897B",
"v. c #2C3981",
"b. c #263785",
"n. c #333D8D",
"m. c #353D84",
"M. c #353D90",
"N. c #364788",
"B. c #394895",
"V. c #3B5597",
"C. c #2C4591",
"Z. c #424A95",
"A. c #4A559D",
"S. c #545997",
"D. c #50558B",
"F. c #576490",
"G. c #696B87",
"H. c #777A97",
"J. c #6D758E",
"K. c #454EA2",
"L. c #4A55A7",
"P. c #525BAF",
"I. c #5A64A7",
"U. c #5966B7",
"Y. c #4B61AF",
"T. c #6568A7",
"R. c #716FA4",
"E. c #6B72AA",
"W. c #767BA9",
"Q. c #6269B9",
"!. c #6674B7",
"~. c #7575B6",
"^. c #726FBC",
"/. c #646EC9",
"(. c #6779C9",
"). c #7C7EC2",
"_. c #727ED2",
"`. c #807CA7",
"'. c #7A8396",
"]. c #7B83A4",
"[. c #7A83C9",
"{. c #7884D5",
"}. c #728ACF",
"|. c #7E8DE2",
" X c #838383",
".X c #8D8D8D",
"XX c #888A86",
"oX c #8B938C",
"OX c #94978D",
"+X c #85869A",
"@X c #8D9296",
"#X c #949494",
"$X c #9A9B9A",
"%X c #959996",
"&X c #9FA59B",
"*X c #A2A49F",
"=X c #8C8BAB",
"-X c #8487A8",
";X c #8986B7",
":X c #8894B7",
">X c #9695B8",
",X c #9392AC",
"<X c #9FA2A9",
"1X c #A6A8A4",
"2X c #B7B7B7",
"3X c #AFB0AA",
"4X c #8A88C5",
"5X c #9597C4",
"6X c #8989D6",
"7X c #9895DA",
"8X c #918FC1",
"9X c #A19BD0",
"0X c #9BA8CE",
"qX c #A4A1D6",
"wX c #A5A2CF",
"eX c #838EE5",
"rX c #9C99E5",
"tX c #8B97ED",
"yX c #A59FE5",
"uX c #9DA6F8",
"iX c #A9A8E8",
"pX c #AAAAF7",
"aX c #A5B9FC",
"sX c #B4BAFE",
"dX c #B3B2F4",
"fX c #BAC6F0",
"gX c #CBD9FF",
"hX c #D7E6FF",
"jX c #E2EFFF",
"kX c gray79",
/* pixels */
"                  + +   @                     @                     o       o     o     o     o                     @           ",
"                  +     . @   6                                 o     o o   o     o o   o     o + + + @       @                 ",
"                @ @     2 = 2 C +       @ @                                   o     o       o   @ . @         . .         @ .   ",
"                + .   + 6 + + n + .     @ +                       o o   o o     o     o o               @       + @ @ . +     @ ",
"                . @   @ %     % +       + # +                   o   o     o         o     o           @ + # @       @ = +     2 ",
"                + 5 2 + =               @ + @                               o     o             @       @ @           . .   @ 2 ",
"                2 c 5 + + + @ +                                                                     @       # x c %           + ",
"                @ x 2     + @     .                                                             @ < 2 +   + C <.e.c     @     @ ",
"                                @ @ @ @         + +   + 2   @ *.@.+     +     3   @ % %       + 2 x v +   + >.$X XE @   + +     ",
"                                @ . .   .         @ @     + $.#X<.n 3 5 8 @     @         . .   @ 2 5 2     x @.@.5     @     + ",
"                @ @     @       @ @   .   @     % 2 2     5 <.x.f.<.*.>.1.$.b 5 3 X       . .     @ + + +       %       .     + ",
"                . @ . @                             @ c @.f.OXh.h.h.f.f.h.h.3.*.n n n 7 X       .       @ +     @   . + @     + ",
"                @ @ . @ @   .                   C 2 C k..X$X$Xp.t.h.h.r.3.3.<.*.*.@.c % .       +         + + + 2 . @ @ +       ",
"                  @                             f.<.t..X.Xj.j.`.r.p.g.r.3.3.>.*.r.D X     @ .         .         +       @ @ .   ",
"                                                <.<.#.#.r.z.oX*Xe.3.r.h.h.e.*.@.*.Z 5 X . X . .       @ .               @ . @   ",
"                                          @ o o k.k.B 5 ;.'.XXoX1.*.=.r.f.*.x . c @.#.Z 2     @ .                   + @         ",
"                    . 2 6   x . X     . + & & - G.w.8.M y B :.oXl.l.l.l.,.l * ; ~ -.-.B n S 8     @ @ @ @ + .                   ",
"                +     @ +   @.#.&.v +   o & 9 f ;XH.G.Q 0 p ..d.l.l.=.%.V 1 y z ! ! E ~ A S 8 @   + @                           ",
"                +     .   Z <. Xh.e.#.X.R R W ! 5XR.W.D.J Q q.H.6.q.,.V y w H o.+.Q Y M B N 5 + @ . .         @                 ",
"                @   2 + @ f.t.k..X`.H.H.H.R.R.~.7XQ.`.T.] D.W.].w.w.0.Q J K ' | +.W J U M p = o @ @     . 2 +                   ",
"                  + 5 @ X c.f.3.`.`.`.`.`.4XyXdXuX^.6X).S.T.E.F.F.F.+.o.[ m.m.v.N.) T W U > & o +       6 v 2                   ",
"                  % 2   @ u.`.r.`.`.8X`.6X7XpXpXpX6XrX7X^.).^.I.E.D.N.N.M.K.Z.M.n.{ _ W J - & o o     @ i v 2   @     @ .       ",
"                @ @   @ X n x.`.s.`.qXyXyX7XrX7XpXrXpX7X[.6X!.].T.Z.Z.U._./.P.L.M.{ _ H s - & o @     . % 5 +     .   . @ @ @ @ ",
"                +     @ 2 @ f.#X`.wXqX8X`.4X7XyXpXdXsX7X[.~.I.[.I.A.Q.eXuXeX/.Q.M.{ P d 9 > o     @ @             @   @       . ",
"    @ @           6   @ t.$XXX`.#X,X`.,X>X8X8XqXiXdXqX8X].!.].E.S.!.}.}.|.tX|.L.v.` F a ; o @           @ @       .     + # @   ",
"                      . f.<.e.s.s.`.,X<X,X,X-X].>X5X5X:X].].E.F.!.!.!.(./.(.U.L.{ ^ G w &       .         .       @       + + @ ",
"                5   2 5 x.@.@.#.f..X*X`.d.G.G.-.w.H.].'.].].'.F.I.I.A.I.Y.V.C.V.` T g 9 o               . @       @         @ . ",
"                    = Z #Xj.k.x.#X*X1Xh.>.q.y...;.y.'.'.d.'.w.o.+.O.N.V.C.b.b.b.^ K a - o               @                       ",
"+ +       @       C @.e.<.f.<.e.`.&X*Xh.4.h.g.%. .,.q.q.o.X.X.Q T O.C.C.C./ b.( ^ I d 9 &   @ @ .       @             . 2 6 +   ",
"2 +     @       5  X#X#X5 c   @ 4.c.3Xc.x.p.$.x < N ..S S ..X.X.` C.V.C.C.C.C./ K K I q - @ @ @         @ .           + x c x @ ",
"2 +       @     @ e.#X#X@.#.x + m OX*Xc.x.&.$ # < u l l ..:.7.o.O.V.Y.}.(.Y.C.b./ ^ I d r > @ @         @             @ 6 v 5 + ",
"%         . @   2 D j.%X.XXXe.5 c OXOXr.i.Z $ S S  .V V X.7.7...Q O.!.aXaX}.C.C.{ / L g q > o   @         @             @ + +   ",
"o +     @ 5 %   @ Z 3Xh.l.l.f.r.2.@X%X;.b N  . .N N 6 l ,.:.z ~ o.o.].hXhX}.V.V.n./ K G s r o     6 6     @   .                 ",
"    o   @ % +   @ 8 x.h.x.OXx.c.%X@Xy.V 7 S N # k A V A ;.X.k l ~ 7.0XhXhXaX}.Y.K.{ L G s - o o   4 %                           ",
"  @ @     . .   @ % D f.c.OXh.OX$X@X2.7 . < #   O ..;.%.:.N * * l w.fXhXhXgXfX}.U.Z._ H s - & o   4 2         +                 ",
"o @ +         X X @ 5 h.c.c.r.OX'.d.%.3   . . . . ;.y.%.E i   o l F.fXhXhXfXfX|.P.Z._ H f 9 * = 6 <.e.c .     @                 ",
"+ @ o         @ @   X h.c.x.3.c.c.5.b $ . 3 < . O 2.q...M <   y R 9.qXgXfXaXtX_.K.v._ L h r & = @.3XkX<.=                       ",
"              . @   X r.c.h.p.l.z.6.S 7 . . < 7 7 ;.;.N l < < M R ' R.pXuX}.U.Y.M.[ ^ L h > & o M $X3X>.= + @                   ",
"      2 6 %         @ D c.r.c.4.5.l.6.S 7   O l k  .N < < O 1 E Y L Z.)._./.L.B.b.[ L H s 9 & o   @.>.5 @ @ . @                 ",
"o   + v c 8 @   X . @ v p.5.l.D 6.6.2.2. .k .   u l * o O o * E J F | P.Q.U.P.b.v.[ L J a & o o   2 =                           ",
"=   2 t.3Xj.v X @ .   6 m =.p.D 2.l.=.&.S b $ $ o : t 1 * o O ; d I L | I.U.A.{ ^ ^ P J s > o @                   .   @ @ . + + ",
"= 2 E #XkX.Xn + X X     X c r.=.5.6.l.&.&.b < < & - : y y : & & 9 q I L N.S.Z.} ^ L H s e > >                       .   @ @ . @ ",
"    = $.t.@.+   X % . . . % 5.u.5.l.S S S M 1 ; - - 0 p z M u ; 9 q d I ` +.} T I G s s r >                                   @ ",
"2     + x %   %   % X %   X =.r.=.=.b 7 l u ; ; e q 9 s p h p p e e q a H W W H d a q 9 & o   @                                 ",
"@ + @ 2 5 %   X       X   X &.=.=.S 7   * ; - e U h e q - 9 0 y - - & - w Y Y Y 9 9 - & o o                                     ",
"  o     +       X @   X   X =.2.S m #   & ; q J ] W U s q 9 r 0 : : * & ; f g f - & & o o                                       ",
"+ 4 @     . . 2 % X   X . X &.5.7 7 O   > 0 s R 9.] ! R J h e ; i k 1 * & ; ; ; & & & o     @ @                   .             ",
"  + @   @ @   @ .     % .   S D . $     : 0 f R W R U R ! R e &     O     o * o & o o o o     @                 @   @           ",
"                  @ .       % x + o o o : p j j t t h t & & o &                                 . + + @     5 Z = % @           ",
"                          + 5 N = = o o = 4 i x , 4 4 , o   o o                                   @ + .     2 v + + @           ",
"                          + 5 c 4 = o o o , , t o = , > o o o o                                     + +     @ + + +           . ",
"                  @ .     @ 2 5 4 > o o o o o o o @ > @ o o   o                                     @ @                         ",
"                . @         @ + 2 = o o   o o   o o o   o   o o                                   @ +                         @ ",
"                            @   , = o   o o   o o   o o o o   o                                   # 2       + .                 ",
"                        @   @   = + o o o   o       o       o o                                   5 x +     @                   ",
"                @     @ O @     = o     o o   o o o   o o o                                     @ x c 6     @                   ",
"2 % +         .                 = + o @ o   o   o       o                         .                     @ . .                   ",
"      @ . @                     + + + o o                                       @         @ @   @ + .       @ @                 ",
"+ @           @                 . @ @                                                                 @     @ +                 ",
"+                                         @                                         @ +     . 5 +     + + +                     ",
"      . + +                               .                                         + .   @ Z t.Z 4     + @                     ",
"c 5 @       + @                                                                 @         5 <.1X2.n           @                 ",
"*.N +       + 2                                                                 +     @   + Z f.@.5     @     +                 ",
"+ @   @ + +                                                                     @     +       +       = +     +                 "
};