/* XPM */
static char *_15fec4bc81c4268bb62c5cc39843636WEFq7LHLKjp2XpdJ[] = {
/* columns rows colors chars-per-pixel */
"64 64 254 2 ",
"   c #020102",
".  c #0A0203",
"X  c #040905",
"o  c #0B0905",
"O  c #01030B",
"+  c #0A050A",
"@  c #030A0C",
"#  c #0B0B0B",
"$  c #130103",
"%  c #130C0C",
"&  c #16080A",
"*  c #0D110D",
"=  c #02130B",
"-  c #14110D",
";  c #010412",
":  c #020B14",
">  c #0C0C13",
",  c #020E1B",
"<  c #090616",
"1  c #150B15",
"2  c #03121C",
"3  c #0B1319",
"4  c #131212",
"5  c #17171A",
"6  c #23171A",
"7  c #2A0810",
"8  c #010D23",
"9  c #041321",
"0  c #0A1623",
"q  c #0C1A25",
"w  c #01142B",
"e  c #0C1C2A",
"r  c #051827",
"t  c #121E2B",
"y  c #141A25",
"u  c #031B34",
"i  c #081D36",
"p  c #161B31",
"a  c #1C0D24",
"s  c #291C24",
"d  c #361D2F",
"f  c #13212E",
"g  c #1A242A",
"h  c #0C243C",
"j  c #0B2137",
"k  c #142433",
"l  c #1A2633",
"z  c #1B2935",
"x  c #14253C",
"c  c #142A3B",
"v  c #1D2C3A",
"b  c #19263A",
"n  c #1D303F",
"m  c #07202B",
"M  c #262928",
"N  c #222E3B",
"B  c #242938",
"V  c #23313E",
"C  c #2A3238",
"Z  c #372A2D",
"A  c #502A39",
"S  c #39423F",
"D  c #45413E",
"F  c #0C2743",
"G  c #132B43",
"H  c #1C2C44",
"J  c #172B47",
"K  c #1E3044",
"L  c #1B334B",
"P  c #17314A",
"I  c #193857",
"U  c #0D2E53",
"Y  c #252E44",
"T  c #243343",
"R  c #2A3543",
"E  c #2C3A46",
"W  c #23354B",
"Q  c #26394B",
"!  c #2C3C4B",
"~  c #2C354A",
"^  c #323D4B",
"/  c #393747",
"(  c #243C53",
")  c #2B3D52",
"_  c #273A55",
"`  c #353D54",
"'  c #3F2741",
"]  c #193C62",
"[  c #58354A",
"{  c #5D3853",
"}  c #4D3447",
"|  c #663748",
" . c #693D53",
".. c #1E425D",
"X. c #32414D",
"o. c #3B454B",
"O. c #2D4154",
"+. c #2B435A",
"@. c #274459",
"#. c #344453",
"$. c #3B4454",
"%. c #3B4956",
"&. c #33465C",
"*. c #344B5C",
"=. c #3B4B5B",
"-. c #384659",
";. c #3B515D",
":. c #2A414F",
">. c #1E4265",
",. c #284866",
"<. c #384C64",
"1. c #2E516D",
"2. c #3C5264",
"3. c #3B556B",
"4. c #375776",
"5. c #2D4F72",
"6. c #3C617E",
"7. c #474A57",
"8. c #574A58",
"9. c #48525C",
"0. c #56555E",
"q. c #4F494C",
"w. c #664657",
"e. c #774657",
"r. c #66535D",
"t. c #6D4D56",
"y. c #564C66",
"u. c #435463",
"i. c #4A5462",
"p. c #42556A",
"a. c #445A6C",
"s. c #4C5C6B",
"d. c #4B5966",
"f. c #535D6B",
"g. c #585865",
"h. c #4A5D72",
"j. c #435B73",
"k. c #585A74",
"l. c #4B4C60",
"z. c #675A67",
"x. c #795767",
"c. c #6B556E",
"v. c #58636C",
"b. c #4B6375",
"n. c #496579",
"m. c #536475",
"M. c #586878",
"N. c #4B606E",
"B. c #65666B",
"V. c #78636D",
"C. c #666B77",
"Z. c #776978",
"A. c #697277",
"S. c #77757A",
"D. c #68716E",
"F. c #874E59",
"G. c #835A67",
"H. c #935A6F",
"J. c #87636C",
"K. c #856877",
"L. c #986876",
"P. c #86737A",
"I. c #96777E",
"U. c #9D6D6D",
"Y. c #A96877",
"T. c #A77479",
"R. c #B8787D",
"E. c #B66A79",
"W. c #AA5F74",
"Q. c #566C82",
"!. c #5B7487",
"~. c #4B6C89",
"^. c #677788",
"/. c #777A86",
"(. c #697C93",
"). c #716C89",
"_. c #897987",
"`. c #967986",
"'. c #8A708C",
"]. c #A86782",
"[. c #B56C84",
"{. c #A87887",
"}. c #B97887",
"|. c #B27A91",
" X c #C47B87",
".X c #C67B93",
"XX c #7A8388",
"oX c #698597",
"OX c #768698",
"+X c #6E8D98",
"@X c #6D8CA3",
"#X c #738BA1",
"$X c #7895A6",
"%X c #7C9CB1",
"&X c #88858A",
"*X c #998588",
"=X c #878A96",
"-X c #998896",
";X c #889398",
":X c #9A959B",
">X c #A88689",
",X c #B7878B",
"<X c #A78896",
"1X c #B98796",
"2X c #A7939A",
"3X c #BA989B",
"4X c #8798AA",
"5X c #9397AA",
"6X c #AA99A6",
"7X c #B897A6",
"8X c #AA8DA6",
"9X c #89A6B9",
"0X c #94A7B8",
"qX c #8BA7B1",
"wX c #A5A4A8",
"eX c #B8A4AA",
"rX c #B3AAB5",
"tX c #C6848B",
"yX c #C88997",
"uX c #D38B97",
"iX c #C99299",
"pX c #D3969C",
"aX c #D0898F",
"sX c #CA8BA2",
"dX c #C898A8",
"fX c #D79AA6",
"gX c #D48BA3",
"hX c #E29CAA",
"jX c #E59DB2",
"kX c #CBA3AA",
"lX c #D8A4AA",
"zX c #C9A8B4",
"xX c #D9A8B3",
"cX c #D8B4BC",
"vX c #CFB0B8",
"bX c #E3A3AC",
"nX c #E7A9B6",
"mX c #E9B4BA",
"MX c #F2B1BB",
"NX c #95B0C5",
"BX c #B0B0C6",
"VX c #DAB7C5",
"CX c #EABAC5",
"ZX c #F6B9C6",
"AX c #FFBED8",
"SX c #A9C6D5",
"DX c #DBC1C9",
"FX c #EAC2CA",
"GX c #F9C3CA",
"HX c #FCCAD6",
"JX c #FCD3DA",
"KX c #EBC6D2",
"LX c #FFD6E2",
"PX c #FFE6F0",
/* pixels */
".   .   X     X     4 o . + & . X = = = = = = = X X   . . . . . # + # + > > # . . * 6 5 *   . * *   X X o     .   . . X         ",
". . .           @ X * #   . & 4 g = X = X X   -   . . . & & $ $ . + % o   . # 5 C *       * X   X     X X . . .             X   ",
".                     # o . s q.o 5 *     M 6 . & Z w.J.I.G.| d d s 6 6 5 & . .   . 5 s 5 4 4 5             .   X         .     ",
". . .       X   * * X X + . + 6 - . o 7 . $ t.DXFXcXxXkXxXmXZXZXvXeX3X7XkX2XK.q.A s . . . o . . X * o     X #   # .   # @ X   O ",
". . .         X X 5 =   @ *   . $ 7 $ & G.FXHXiXiXiXpXgXiX.X XW.R.,XkXlX3X>XI.P.{.rXrX'.} + + 1 . @ > # # # X       # # #     * ",
".   .         X X g 4   # 4   $ $ d U.ZXJXkX1XfXnXsX}.Y.W.[..X.XT.T.T.Y.L.L.H.J.K.G.K.<X7X'.} + .     # > .   .       X .   . 5 ",
". .         X   g S g   X     5 J.1XnXxXlXxXpXtX[.}..XuXuX.X XW.aXR.U.F.F.F.e.| | | x.'.'.-X8X8X/ 5         : M C #           % ",
". .           X X 5 X   * . 6 P.xXxXnXxXiXtXpXmXMXMXhXgXuX XE.W.tXaXaX XF.e.e.F.[ |  .x.c.K.'.'.6X0.a # O   C D.v.C     .     . ",
".   . X o @ @   X =   M   o eXeXxXlXlX3XiXlXmXMXGXMXnXnXbXgXuXtX XuXuX X}.}.U.| | A |  .{ { { c.c.-X/.C O   o.wX;XM   *     % . ",
"  .                 o . } 6X2XJXFXmXmXlXlXlXlXmXnXMXHXGXnXyXuXhXaXuXaX X[.E.H.| F.| A A [ { { y.c.k.`./.3 O C X.o.X X * . . % . ",
". . . X       X o 6 1 Z 2XVXcXKXFXlXlXmXmXlXlXmXiXlXGXMXhXaXpXnXaX XR.E.E.T.Y.L.].e.A A [ { { { { y.)._./.B @ X =     . # o . . ",
"X X . X X X . % o & x.vXvX7XFXCXFXlXlXmXmXpXiXkXbXlXpXfXfXpXpXuXuXR.U.W.{.[.{.|.H.F. . . . .{ [ / } } k.wX/.3 X   = X   . . . $ ",
"#     X # # . . . & DXAX1XCXdXHXGXmXmXGXMXpX,XyXJXMXiXaXiXaXtX,XfX,X|.,XyX|.].J.F.G.G.F.x.e.t.w.y.d ' y.g./.A.q O @ X   o . . $ ",
">     X X     . 7 -XKX1XfXZXjXAXnXlXlXMXmXlXaXaXMXlXaXtX X}.,XtX|.|.1XdXdX7XL.e. .e.K.G.x.x.x.J.c.'.).y.` f.^.v.: X   O % $ $ $ ",
"=     X     & s `.PX8XsXjX.XAXhXuXuXpXpXbXbXpXuXtX XR.tX XR.}.tXT.{.{.|.7XdX<XG.x.H.K.G.e.x.L.`.).BX'.y.i.7.9.XXo.=   * . . & . ",
"    X # . . 6 8.PXkXjXZXjXjXAXMXbXbXbXpXhXbXpXtXaX X}.tXuXtXY.H.{.`.'.x.].7X7X`.].`.`.x.x.J.I.<X|.'.'.).7.o.N.d.$Xz @ * . . & $ ",
"X 4 X   . $ A FXHXxXpXfXmXCXnXbXZXnXlXMXGXMXpXR.aXR.pXGXmXlXdX{.I.K.V.V.J.V.x.r.V.V.r.w.t.K._.P.8X).c.'./.l.` %.^.M.O 0 < . + 1 ",
"    % . & d ,XHXnXdXpXfXbXhXlXlXCXmXmXGXGXbXaXR.R.T.iXlXiXkXVXdXZ.V.z.z.z.r.z.V.r.V.z.r.V._.-X-X`.-X'.Z.7.$.-.u.f.(.~ O 3 + < 1 ",
"X   # & $ G.FXCXsXfXfXnXnXfXfXbXmXZXHXJXGXlXaXpX,X,XyX>XI.,XeX<XP.P.Z.V.z.r.z.z.q.r.r.8.z._.-X-Xr.'.-XZ.y.l.=.Q X.oX/.; 1 < + & ",
"# 5 . 6 6 vXGXxXiXgXnXMXnXbXbXxXlXcXGXJXmXlXpXpXR.,X1X>XT.<X<XK.Z.S.S.S.Z.B.z.0.q.8.8.q.B.S._.Z.[ V.Z.k.k.M.7.k K m.5XV ; < + < ",
"O 5 . $ K.LXHXCXgXgXfXjXnXbXlXkX3XkXlXlXlX,XaX3XU.>XT.U.<X7X<X_.Z.B.g.0.B.C.B.0.g.0.q.q.B./.Z.0.z.z.y.7.7.` ) ~ W ~ OX^.O > < + ",
"+ . 1 $ CXCXAXgXjXjXjXnXmXCXmXxXmXkX3X3X3X,X,X,XT.>XL.J.<X7X<X_.-XA.i.q.0.v.g.0.v.0.9.9.C.XXA.8.g.z.z.g.` l b ` ) b Q.5X0 < < ; ",
"s . a | VXdXsX}.gXjXnXMXMXGXFXmXFXvX3X3X3X,X>XU.,X>XI.K.<X-X/.'.5XXXv.i.9.0.7.7.9.i.i.0.v.A.g.o./ } z.).k.-.` &.` W p.4Xd.: O O ",
"s . 1 VX1XjX|..X.XhXnXmXCXGXFXcXDXvXwX3X3X>X>X>XI.>XI.`.6X&XZ._.C.v.v.f.s.d.9.7.$.i.d.9.=.9.o.N / / / 7.C.).^.Q.) p.l.!.;X: O O ",
"1 . d CXzXsX.XgX.XgX.X.XkXmXDXcXDXvX2X*X2XI.P.>X*XJ.D.P.B.Z.).Z.9.! #.N.f.d.u.:.%.=.u.u.u.;.%.#.s B ' Y ` Q.(.).^.(.) !.OX0 ; @ ",
"< + [ VXdX|.sXsX.X.X.XsXlXvXzXeXwXwX:X*X*XP.V.*X*XI.*XP.z.z.B.f.M.u.u.u.#.%.s.N.O.=.d.s.9.#.E V B R ~ Y Y &.p.Q.m.Q.&.^.OX! : : ",
"< . Z.eXdX|..X.X.X|.|.zXkXeX2X*X*X:XwX:X*XP.V.&X*X*X*XXXg.l.f.u.u.9.h.m.#.K T T T ! &.=.O.Q W T Y / ` Y p Y _ ` <.p.` ^.oX^.: : ",
"< < 8X7XzX]..X|.].]..XzXkX*XP.&X&X:X:XwXwX&XP.*X&XS.S.XXC.l.k.k.2.p.(.OXM.=.*.O.&.! W W W W K n z T ~ Y H J J Y J _ _ n.M.4X; : ",
"1 1 VX8X8XL..X|.].].sXzX8X).D.XXXX;X;X;XwXwXwXrX:XB.D.;X/.s.m.^.s.&.p.h.3.p.M.Q.h.<.` #.&.&.T j r k T W Y J Y _ L W @.3.b.qX: 2 ",
"1 < BX8X|.H.].].].|..XzX2XS.D.XXD.XXXXXX2XwXwXrXeXD.D.OXOXf.m.(.p.W H L c _ p.h.<.<.&.p.M.b.<.Y e e k Y Y H J J _ W @.*.n.qX2 2 ",
"0 ; rX7X|.H.].].].|.8XBX8X&XXXXXD.XXD.D.XX&X;X:XwX&XXXXXM.d.M.^.h.` ` &._ ` u.<.H H ~ <.p.p.2.#.:.n c H J J x J _ L :.@.oX+Xm 2 ",
"1 ; 6X7X'.'.x.].H.].|.8XwXwX;XS.XX;XXXD.D.D.D.S.:X+XXXD.%.u.Q.M.&.L H Y H _ p.M.L Y H G p x H Q m.=.T K Y x x J L J K ..oXM.m 2 ",
"a p BX8X8Xc.'.{ Z.K._.P.B.D.S.D.D.S.XXA.D.M.v.v.X.M.^.M.2.3.M.oX#.p 9 k T T N ! f e v Q ~ k N #.7.N N T b i J i i P <.<.h.(.; r ",
"< p BX5X'.y.).).'.).g.g.0.D.B.o.9.0.v.B.A.A.v.9.9.%.;.s.2.:.2.oX2.N q k V v z V E N z l k l V ^ X.T ^ =.) L H u F P &.<.j.^.; 8 ",
"< 8 BX8X'.y.c.).).C.g.g.q.0.D.B.9.9.9.9.N.v.d.o.u.E n #.%.:.3.^.=.N q e k f e k T V z f l V V z N B ~ #.W Q W j F _ &.( p.!., ; ",
"8 < BX8X).k.k.#Xc.k.B.B.9.v.&X;XS.D.d.o.o.9.o.X.#.#.! n Q 3.M.^.=.N 0 0 q e t l q v E V T X.V f N l b b j ( <.@.P ,.&.L p.k.8 ; ",
"a ; 5X5X).).k.).(.y.-.y.g.Z./.g.XXXXC.9.o.X.X.C X.%.#.n n #.N.M.p.X.l f k l v V 2 V o.^ R E n t N z b j c 2.Q.4.( ,.&.W s.u., ; ",
"8 ; Q.0X5X~.~.).Q.` ` ` ` ` 7.7.v.D.A.M.;.o.X.X.%.T n :.n r c ;.N.%.V f f l v V V ! #.T k f l z l l v c ( M.(.j.+.<.&.) M.! , O ",
"8 ; ~ 0X0X).#X(.<.` ` ` p a ~ { X.9.M.v.%.X.E E :.z z E z 2 2 n d.%.V t q l V V $.E n k q q f T V K Q T <.oX#X3.@.O.O.#.^.l ; : ",
"8 8 x NXNX~.NX9X(.5._ Y b B Y B X.;.9.%.C z V V f n V c f k f q d.%.V f k V X.%.#.v q t f q t V 9.=.#.:.a.4X9X~.@.Q Q *.A.3 O : ",
"; u c 0XNX@X$XNXNX~.Q W ~ B p p %.%.X.X.:.X.X.:.z v g f f v z e g d.N.V 2 f Q V ^ N f f f t V %.;.;.u.a.!.9X9Xn.h.+.s.o.XX3 = 3 ",
"9 : c +XSX@X@XNXNX~.J x ~ ~ b p l z n n V n z f v f q f g q 2 q %.f.m.7.V k f f v f f f f f N X.;.N.b.n.oXqX%Xn.a.2.a.N.;.3 X = ",
"q @ e *.NX$XoX%X%XoX3.:.p p b ~ z k k k c z k f C g 3 v z 2 2 g %.$.X.E V f q t l f k z v N V X.;.a.M.!.n.$X+X3.+.N.;.A.3 3     ",
"3 @ : e $XNX@X%X+X%X$X6.J p Y } =.W c k k z n R :.z f z g 3 3 f X.V k q 0 0 e f e e f l z z E ! %.*.3.n.n.$X+X;.L u.9.v.X * X   ",
"> : @ : 3.SX$XqXqXNXNX+XM.k.7.` a.:.c c c f f c f f f 3 : 2 3 : C X.R 0 : r f t 2 0 0 2 0 f V E *.:.:.*.n.+X+Xa.:.;.d.o.X   *   ",
". 4   O m qXqX$XNXNXSXSX5X(.C.v.s.*.:.O.O.n m 2 q z g 3 3 y 5 , 2 T E k 0 l N k f f e 0 q v :.%.;.:.@.@.6.+X+Xn.;.;.d.y @   *   ",
". .   X = ;.qX+X+X$XNX0X4X^.^.OXM.a.2.N.a.X.k t f g z B B g y M : q l B z z T E T E E v V $.d.s.;.;.;.1.3.oX+XM.N.;.X.X *   X   ",
"-   o = X q qX$XoXn.n.+X4XoX^.^.oXn.3.b.N.*.n n f 3 f E C 5 5 C V l f T N k z $.E #.#.E ! 2.s.N.;.;.3.3.;.n.!.b.N.;.q   @ *   o ",
".     X O O E 4X+XM.n.n.@X@XoX~.~.a.3.j.3.Q x k c e e t f l g p B l p y l Y ^ %.E %.:.c :.n.!.b.1.3.3.3.W *.p.=.s.M O     .   o ",
"  .     O O q N.NXoX@.j.1.~.5.4.n.3.j.h.j._ G t v b t e k B C V / R Y b l k l c K X.:.L ;.A.oX3.;.:.*.Q #.b 9.9./ 3     +   . o ",
"  X     @ O @ e 0X+XoX@.3.U 1.>.I I +.4.j.<.( L t i e 8 0 l z t l Y Y N b p x x G W :.@.b.oXoX;.@.*.c ;.p p.=.7.q O   O #     . ",
"  # +   @ @ O ; V OX#X$XP 3.I ..F F L ( +._ ( L w x k e r b k 8 8 i H G j i x J c L :.*.6.~.6.@.:.K 3.m =.=.v.y O O O + +     . ",
"  # o   O @ O O ; n 4X!.oXI ,...@.I P F h h F G i F F i e H T H x J J J u u u F F I ..1.1.1.>...L :.t p.z m.l O O O O +       o ",
"  o       O O : : 9 j $X!.!.:.3.3.,.U u u F L L j i w 8 w i ( <._ I U U F F U ] I I ,.1.,.......2.q #.%.M.y 0 O O + > O       + ",
". o     X O O : f @ 9 v oXn.n.n.,.@.P h h U ( I j 8 8 w w w G <.] I U U U >.5.4.>.] >.4.6.,.>.@.O.:.X.v.g y O : O ; # @     .   ",
"- o     5 X   @ O , O @ k A.oXb.<.,.( G F P L h h w u J J w u P >.] U U U >.5.5.>...,.6.~.6.1.1.k 9.C.B O O y O O + + O O + +   ",
"- * X       O @ @ O O @ O : #.(.h.3.+.L L J G F u j j u w u F U ,.] ] ] ] ] 5.4.5.1.4.4.6.4...P d.o.g ; O ; O O                 ",
".   . . . .     ;   O : O O ; k 4X!.&.Q ( ) L j h F G J P L W _ ] >.5.5.5.~.~.~.I ~.(.6.@.@.n.^.0 : @ O O O @ O O   O     O O   ",
"o . .           #     @ > O   O 8 #.^.OX^.p.) T K G x h G J L L ,.5.4.5._ U U ] n.@.j c n.!.:.; O O @ ; ; +         O     O     ",
"o . .           #     O : @ @ , : : q ~ M./.^.m.2.#.Q Q +.p.h.Q.<.4.~.<.j.5.4.y.@.N.^.m.c @ : l 5 > + # # O O                   ",
". .   o o o     * .           O O , y : O 0 u.=X^.C.h.p.p.p.u.<.Q.Q.Q.Q.Q.Q.l.&.(.7.z z 3 : M D./ 5 X     O + +   O         O   ",
"Z 5 o     . o o     + # .       >     O 3 y , ; f N %.M.(.4X4X4X(.(.(.OX(.).` Y l :   O X   q.wXr.Z     . + . @       O O       ",
"q.Z o . .   o -     o o o X X +   @ 1 O   O O 3 ; : 0 0 8 : ; ; < 8 8 e p 0 ; ;     X 4 # * D P.q.M o o # .   .         O   O   ",
"o . . . o % .   o .             .     o > > ; O O O ; ; ; ; , 8 8 8 ; ; ; O ; O + > #   . % - . -   . o # .   O   O         O   "
};