/* XPM */
static char *M87_colours_and_stars_6_trans_NvBQzQNjv4BqNJjoeBT78QIaYdkJdEY4CnGTJFJS74MYhNY6w3GNbO81678494906[] = {
/* columns rows colors chars-per-pixel */
"64 64 245 2 ",
"   c #010101",
".  c #090604",
"X  c #040A03",
"o  c #0B0A05",
"O  c #05020A",
"+  c #0B020B",
"@  c #0D0B0A",
"#  c #060F0E",
"$  c #130304",
"%  c #110D06",
"&  c #12060B",
"*  c #110E0A",
"=  c #1A080C",
"-  c #0B1206",
";  c #161006",
":  c #15120C",
">  c #1B140C",
",  c #1C180D",
"<  c #1B1506",
"1  c #0C0312",
"2  c #0B0714",
"3  c #130112",
"4  c #130A14",
"5  c #14031B",
"6  c #190A1B",
"7  c #0C1113",
"8  c #161311",
"9  c #1A1613",
"0  c #1E1A13",
"q  c #1C181B",
"w  c #230006",
"e  c #221A0D",
"r  c #22190C",
"t  c #24041C",
"y  c #370014",
"u  c #201711",
"i  c #241C13",
"p  c #281D13",
"a  c #241D1A",
"s  c #370E15",
"d  c #272115",
"f  c #2C2215",
"g  c #2C251A",
"h  c #34291D",
"j  c #36271A",
"k  c #1A0529",
"l  c #1E1123",
"z  c #29092A",
"x  c #271826",
"c  c #361629",
"v  c #260834",
"b  c #360A38",
"n  c #2A1438",
"m  c #331638",
"M  c #390B2F",
"N  c #362823",
"B  c #3D3224",
"V  c #3E3429",
"C  c #3A253A",
"Z  c #2C2723",
"A  c #442C1D",
"S  c #440F38",
"D  c #52152E",
"F  c #422D2B",
"G  c #432827",
"H  c #463A2B",
"J  c #453527",
"K  c #513C2A",
"L  c #56263A",
"P  c #453231",
"I  c #493935",
"U  c #492A36",
"Y  c #6A3034",
"T  c #4A101C",
"R  c #4F412E",
"E  c #57493A",
"W  c #5D513B",
"Q  c #654C38",
"!  c #6A583D",
"~  c #2E0341",
"^  c #390C47",
"/  c #391645",
"(  c #3F155C",
")  c #350D52",
"_  c #3B2043",
"`  c #451548",
"'  c #58154A",
"]  c #4A0A52",
"[  c #5A0D57",
"{  c #491A59",
"}  c #571659",
"|  c #530D46",
" . c #681C59",
".. c #741858",
"X. c #641849",
"o. c #45244A",
"O. c #55284B",
"+. c #4C3644",
"@. c #54335C",
"#. c #4F2B53",
"$. c #6C2955",
"%. c #70264D",
"&. c #420F65",
"*. c #4F1564",
"=. c #5A1B68",
"-. c #4E1671",
";. c #651A68",
":. c #661872",
">. c #771776",
",. c #791468",
"<. c #592867",
"1. c #4F266A",
"2. c #682767",
"3. c #742669",
"4. c #6C2675",
"5. c #7A2876",
"6. c #763C6C",
"7. c #5B5243",
"8. c #735B45",
"9. c #674957",
"0. c #735A52",
"q. c #685448",
"w. c #6E6141",
"e. c #7B4866",
"r. c #831E58",
"t. c #A11D56",
"y. c #8F345C",
"u. c #932E50",
"i. c #A82A5D",
"p. c #B93858",
"a. c #B03A4F",
"s. c #891B75",
"d. c #86196A",
"f. c #8B2766",
"g. c #8A336A",
"h. c #842977",
"j. c #972776",
"k. c #983479",
"l. c #972E6B",
"z. c #A82D67",
"x. c #A9386A",
"c. c #B63766",
"v. c #AA3676",
"b. c #B63976",
"n. c #C33A56",
"m. c #C33A58",
"M. c #C93E65",
"N. c #C93E75",
"B. c #865C5E",
"V. c #B9455B",
"C. c #BA535C",
"Z. c #AB5759",
"A. c #866859",
"S. c #BB605D",
"D. c #954C75",
"F. c #B5456A",
"G. c #BA4478",
"H. c #B04B6D",
"J. c #8D7966",
"K. c #926E6C",
"L. c #B9686D",
"P. c #C74C49",
"I. c #C8584B",
"U. c #C84659",
"Y. c #CC5557",
"T. c #D4535A",
"R. c #D04950",
"E. c #E1585D",
"W. c #DA615B",
"Q. c #D86F51",
"!. c #EB765B",
"~. c #E2625F",
"^. c #C74768",
"/. c #D44C68",
"(. c #CB5965",
"). c #DE566D",
"_. c #D95A65",
"`. c #C84977",
"'. c #D74D75",
"]. c #DB5B7C",
"[. c #D85579",
"{. c #C55174",
"}. c #E55D6B",
"|. c #E65B75",
" X c #E65A7A",
".X c #C56265",
"XX c #DD626A",
"oX c #DA6768",
"OX c #CA6176",
"+X c #DC6377",
"@X c #D27A74",
"#X c #E76868",
"$X c #E97469",
"%X c #E6697A",
"&X c #EB7776",
"*X c #F57875",
"=X c #F26C72",
"-X c #8F8063",
";X c #A28877",
":X c #DF8758",
">X c #EB8B59",
",X c #DE8078",
"<X c #F38363",
"1X c #F98868",
"2X c #EC9865",
"3X c #FB8677",
"4X c #FD9778",
"5X c #EC8E71",
"6X c #FAA779",
"7X c #FFB27C",
"8X c #EBA067",
"9X c #7B3386",
"0X c #973486",
"qX c #8A3089",
"wX c #A13983",
"eX c #B23F82",
"rX c #984F83",
"tX c #A94082",
"yX c #AD428C",
"uX c #C34C82",
"iX c #C75586",
"pX c #D75784",
"aX c #C44B90",
"sX c #E55B85",
"dX c #D96684",
"fX c #DC6092",
"gX c #F87787",
"hX c #EB708F",
"jX c #AE8E8D",
"kX c #FF8D84",
"lX c #FE8987",
"zX c #FB9785",
"xX c #FF9895",
"cX c #F6868B",
"vX c #FFA484",
"bX c #FFA48A",
"nX c #FFAC8B",
"mX c #FFAB85",
"MX c #FFB486",
"NX c #FFB58A",
"BX c #FFB694",
"VX c #FFBE94",
"CX c #FFAF94",
"ZX c #C5AFA1",
"AX c #FFC099",
/* pixels */
"                                        O                                                                                       ",
"                                                O                                                                               ",
"                                                                                                                                ",
"                                                                                                                                ",
"      O             O                                                                                                           ",
"                                                                                                                                ",
"    O         O   O                                                                                                             ",
"        O             O       O                                                                                                 ",
"                                          O     O       O                                                                       ",
"                                      O                                                                                         ",
"            .                                                                                                                   ",
"                        .           .       .               .                                                                   ",
". o @ % o . o . o o @ * 8 : @ * & > 8 8 = 8 8 8 8 : 8 * & * * % @ * * @ @ @ @ @ . . O     X X .     .     .   . .         .     ",
"@ % * % o o % o o o @ : : * % @ : > > > , > 9 > 9 > 8 > % * > * * @ * @ . . . . o . o X . .   . . . o .   .     . . . .       . ",
"@ ; : % % : : : ; ; ; : : : * % ; : > > > > > > i , u u : > u : * : : * @ @ . . o . . .   . . . X o . . .     .   X             ",
". . . . X ; : : 0 : : : : ; > > < ; ; > , , , i r , p p > e e = = 8 9 q 9 4 @ . o . . X X .   X .   X . X .     . . .         . ",
". . X . X o ; : , : i , : > ; r r r < < r r p j d f f f p p a 9 > 0 * @ x x 1 & $ % X . . X : X X   X .   .       X o X     .   ",
". o : : @ . @ @ @ > : , > % r e r r r d J f P B h f f j j j N x x = 4 4 1 l x + o o . o @   X   . . .   .     . @     * :     . ",
". ; : : : o o ; o > > e r > e e f p N c A A J E I H G G F T c m M x x 6 1 4 7 0 % % . + @ . X X X . o X X . . X .     o . .     ",
". o o o @ % % % * > i r r p i p j h c A K Q 0.9.+.U U O.L L $.$.X.L c c z t 4 @ o % . . + + .   . . . o .   .     . .       .   ",
"o . X o @ ; : % ; > i u r f f j f j A Y B.B.$.O.o.<.2. .%.y.x.x.F.L.H.y.3.X.b 3 . . o o $ $ . .   o . 7 . o   . .   .       . . ",
"X . o o o % ; : % , r e r f B h J R Q J.K.Y e.e.2.'  .D.iXiXpX X X/.[.pXN.b.h.S & . o o $ $ & . . @ @ @ . @ . X .     . .     . ",
". . ; @ o @ : : > u e f f f B B J Q A.;Xq.jXrX;.r.b.[.[. XpX[. X|.|.).]. XM.b.D.' 5 o . & + o X     X .     .             X .   ",
"o o o o @ @ : , , , f f j j j J K ! jXK.jXK.| f.pXpX X/.n.p.p.n.n.m.m.}.=XsXN.v.D.S t = c 3 .   .   o   @   .     . . .     O X ",
"% X . : % * : , : , p d f B H K ! J.ZXQ e.%.g.uX`.[.c.t.^.+X}.}.|.)./.p.^. XsXb.b.D.M z b m + X .   @ . . @     .         .     ",
"o X o : * * : : d d p f f B H R w.-X;XB.6.%.F.F.pXx.t.fXdX_.#X}._.%X%X%X^.V. X Xc.iX%.` b o.O @ . o @ # X   .   .     .     .   ",
"  . o * * * , 9 i i p g h B H R Q 8.J.B.} 5.x.pXG.u.dX_.Y.&X*X*X*X*X=X$X3XW.a.gXM.pXv.[ ] @.5 4 O     . .   .       X .     . . ",
"o o - o o % * , , > , g N B H E 8.0.K.#.] h.G.].i.fX(.P.xXkX&X(.V.C.&X*X!.3XT.#X X^.iX..[ 2.z 2 @   .   @ 8 .   .   .     . X @ ",
"@ o - o % : : : : : > p p d N E 8.0.9.b [ v.[.)./.|.R.lXkXXXx.X.S T %.].lX3X*XI.gX^.pXt.,.4.n 1 @   .   . 8     .           o o ",
". . . o : : ; : > > , i , > e H q.+.` `  .G.]._.=XE.~.xX$XF.' k 5 1 y %.&X*XlXI.gX/.'.b.>.qXn 2 # .       .     o         . X O ",
"o o . o : * o @ * : , , > > e I 0.+.n ` u.{.hX_.}.E.*X3X.Xu.t 1 1 O + w .XlXkXI.*X).'.b.s.qXz 5 @ o .   . # o             . o   ",
". . . . * o . : : : : ; < e N 7.E V m ` i.).#XXX}.~.4X4X+Xu.$       O w Z.kXkXP.3X+XM.b.j.h.z 1 4       @ 9 .     . .     . .   ",
". @ . . @ o @ * : 0 % ; > , V 7.W P m ' c.}.#X#XXX$X6X<X#XZ.w .     $ y C.xXcXR.kXoXp.b.j.5.v k + .   .   .       X X   X       ",
". .   . . . X o * : . > , , B 7.q.P / ' {./._.*XT.&XvX<X$XC.T $ . $ w Y 5XnX$X$XxX(.F.z.0X5.~ n + . X     .   X   .     .   X   ",
". . . . X . . . o X * , > d g 7.w.V ` } dXT.U.cXY.*X4X1X<XzXZ.D y y Y @XvX7XQ.4XkXY.z.v.eX:.{ n   . . . . . X                 X ",
". * @ . X . o . . X i , < d d E 7.U ` 3.dX/.a.hXgXT.<X6X1X4XcX@XL.L.5XbXNX:X:XBX#X^.c.aX0X:.<.k +   . . X     . X   X           ",
". . . .   X o . . @ : : i , N H R P `  .dX/.z.[.xXQ.<X<X1X4XmX7XNXBXBXBX2X:XBXzXE.m.'.uXd.4.` + + . .     .           . X     . ",
". . .     . o   . o ; o i i g h H P ` ' G.`.b.c.gXzX4X!.!.<X6X6X6XMX6X2X6XVXBXoXT.).|.z.h.4.t + .           X   X .   X         ",
"      . .   . . @ X : o 9 g > e V N o.' f.yXv.z.x.xXvXMX1X:X>X2X8X8X6XMXAXbXI.P.}.|.N.l.qX{ + . X .                             ",
".     .         . X ; : a u : ; N a U o.[ 0Xk.eXz.{.3XvXMXNXmX6XMXMXVXNX5XI.oXgXgX'.z.k.:.v +   o .   . .   .                   ",
"        X .   . o . o : * o % : d q Z o.<.:.5.0XyXt.H..X,XbXnXmX6X4X1X!.$XkXlXhX`.b.wX5.b + 3 + . . X .   .             .       ",
". .   . . .     X   . @ % o & * q a Z C { -.=.;.0XeXf.l.H.C.oXoXoX#X#X=X$XoX{.x.v.k.2.b 1 . O . O   .     X       .             ",
"    X       .   X @ . . @ o o * 7 8 d Z _ / / ` =.qX0Xd.j.v.b.`.'.'./.M.c.c.l.k.5.#.z 5 O X X       .   .       X .             ",
"            X . . @ o . o o o * # @ , i x C / o.{ [ qXqX>.h.s.j.v.b.`.b.b.k.qX4.{ ~ 5 o O 7 -   X .     .     .   . X   X       ",
"X           .     o .   @ . . . . . - - 8 a N o.@.o.( :.qXqX>.:.:.;.;.2.:.:.*.{ / n 6 4 l 6 & + . .   . .                       ",
"  O .           . X   . . .   . & . X X o % = Z q n / ^ -.=.9X4.-.&.) ( &.) ~ k k 2 O + 5 +               .               .     ",
"O             .     .   X o X O .   . . + + . X # 7 6 l k n b { 1.1.1.{ ( ) v k 2 O . O O 1 @                     . X   . X     ",
"X                     O X . . .   . . . . @ # X X   . . 2 1 1 5 k k z v v k 5 O O     . O O   O     .                   O o     ",
"                              . .     .   . X . O   X . . O O + 1 O + + 1 O O   .     . O                                       ",
"                                X   .         .   X   . X   o .   .       .   .             .                                   ",
"      . .           X       X     . .     .       .       .   . .                         X                                     ",
"                                .                                                                                               ",
"                                                                                                                                ",
"                                                                                                                                ",
"                                                                                                                                ",
"                                                                                                                                ",
"                                                                                                                                ",
"                                                                                                                                ",
"                                                                                                                                ",
"                                                                                                                                ",
"                                                                                                                                ",
"                                                                                                                                ",
"                                                                                                                                ",
"                                                                                                                                "
};