/* XPM */
static char *player21678500690[] = {
/* columns rows colors chars-per-pixel */
"64 64 239 2 ",
"   c #010102",
".  c #0A0303",
"X  c #030904",
"o  c #0B0A05",
"O  c #01030A",
"+  c #0B040C",
"@  c #030A0C",
"#  c #0B0A0B",
"$  c #130A0A",
"%  c #0D120D",
"&  c #07120C",
"*  c #13120D",
"=  c #171006",
"-  c #000411",
";  c #030B12",
":  c #0E0C12",
">  c #060C17",
",  c #130C13",
"<  c #170C16",
"1  c #041215",
"2  c #0C1314",
"3  c #0C131A",
"4  c #05161B",
"5  c #131313",
"6  c #13151B",
"7  c #1B141A",
"8  c #131A1C",
"9  c #1B1B1B",
"0  c #161A14",
"q  c #221F1A",
"w  c #17211D",
"e  c #20251E",
"r  c #081A23",
"t  c #141C24",
"y  c #1B1C22",
"u  c #161825",
"i  c #231B25",
"p  c #1D2125",
"a  c #1B232A",
"s  c #162529",
"d  c #182934",
"f  c #193235",
"g  c #0C2831",
"h  c #232324",
"j  c #2C2C2C",
"k  c #29262A",
"l  c #2D332C",
"z  c #262832",
"x  c #293638",
"c  c #333333",
"v  c #373837",
"b  c #36312E",
"n  c #394339",
"m  c #40403E",
"M  c #143E46",
"N  c #2B3844",
"B  c #1A4140",
"V  c #374648",
"C  c #384A51",
"Z  c #2C5358",
"A  c #365357",
"S  c #284A4F",
"D  c #295868",
"F  c #375C68",
"G  c #2B6876",
"H  c #3B6674",
"J  c #2F6971",
"K  c #175665",
"L  c #464748",
"P  c #4B534A",
"I  c #474C56",
"U  c #4A5758",
"Y  c #575C57",
"T  c #514B4D",
"R  c #566459",
"E  c #676E5B",
"W  c #585D62",
"Q  c #4F5861",
"!  c #496669",
"~  c #576765",
"^  c #4A726F",
"/  c #476A76",
"(  c #566F7B",
")  c #4B727B",
"_  c #57767A",
"`  c #656768",
"'  c #687669",
"]  c #637476",
"[  c #777978",
"{  c #716D6C",
"}  c #7A867C",
"|  c #95987D",
" . c #3C6F82",
".. c #3A7787",
"X. c #497986",
"o. c #567C88",
"O. c #4A7D92",
"+. c #537B92",
"@. c #446C84",
"#. c #697D86",
"$. c #3E8396",
"%. c #378BA3",
"&. c #47858D",
"*. c #57878C",
"=. c #4A8797",
"-. c #548393",
";. c #5B8594",
":. c #548B95",
">. c #558B9A",
",. c #5C8C9C",
"<. c #598997",
"1. c #57939B",
"2. c #4E939D",
"3. c #668789",
"4. c #778888",
"5. c #628493",
"6. c #638B9B",
"7. c #688C96",
"8. c #6C949C",
"9. c #679297",
"0. c #759698",
"q. c #7E8E89",
"w. c #78A69E",
"e. c #478BA4",
"r. c #588CA2",
"t. c #4493AB",
"y. c #4A96AD",
"u. c #5A94A4",
"i. c #5797A8",
"p. c #4B99B3",
"a. c #569AB4",
"s. c #6B9AA4",
"d. c #6696A8",
"f. c #7799A7",
"g. c #649CB3",
"h. c #55A3BB",
"j. c #69A2A9",
"k. c #7AA2AA",
"l. c #6BA3B6",
"z. c #77A5B6",
"x. c #73AEC0",
"c. c #868786",
"v. c #85928C",
"b. c #939789",
"n. c #8D8F90",
"m. c #899995",
"M. c #9D9D9C",
"N. c #949893",
"B. c #98A59A",
"V. c #92A192",
"C. c #A6B39F",
"Z. c #AAAC96",
"A. c #8B9BA2",
"S. c #9A9EA3",
"D. c #85A5AD",
"F. c #87A8A9",
"G. c #9DABA3",
"H. c #97A7A9",
"J. c #85B4AC",
"K. c #86ABB7",
"L. c #8DB5B9",
"P. c #96B3B8",
"I. c #9AB2AC",
"U. c #A4A5A4",
"Y. c #ABACAA",
"T. c #A7ACA6",
"R. c #A7B6AA",
"E. c #B3B6AE",
"W. c #B3BBAC",
"Q. c #B6BBA8",
"!. c #AAB9B7",
"~. c #B6B9B7",
"^. c #ADC2B8",
"/. c #BBC6B4",
"(. c #B7C6BB",
"). c #B8C1AD",
"_. c #8DC0B7",
"`. c #C4CCBC",
"'. c #C5C9B7",
"]. c #D5D5BC",
"[. c #CBCDB3",
"{. c #9ABBC3",
"}. c #8BB3C5",
"|. c #ABBDC3",
" X c #9DC4D3",
".X c #93C5CA",
"XX c #A9C5C7",
"oX c #B8CAC5",
"OX c #B7D5CA",
"+X c #BBD7D4",
"@X c #A9CDD5",
"#X c #BEE2D7",
"$X c #BBE4E0",
"%X c #C2CCC4",
"&X c #CBCDC3",
"*X c #C5C5C4",
"=X c #C6D2C3",
"-X c #CCD3C4",
";X c #C9D8CB",
":X c #D2D4CD",
">X c #D5DBCA",
",X c #D4DAC4",
"<X c #CDDCD2",
"1X c #C4D9D4",
"2X c #D4DED4",
"3X c #D8DAD6",
"4X c #DCE1CC",
"5X c #D6E1CD",
"6X c #C6E2D8",
"7X c #DAE6D8",
"8X c #E2E5CC",
"9X c #E1E0C4",
"0X c #E4ECDB",
"qX c #E3E8D6",
"wX c #ECF2DC",
"eX c #E9F1DA",
"rX c #F4F5DC",
"tX c #F3F2D6",
"yX c #F0EFD0",
"uX c #DADEE1",
"iX c #C9E6E5",
"pX c #D4E9E5",
"aX c #DBEAE6",
"sX c #DAFDF9",
"dX c #DAF0E4",
"fX c #E5EAE4",
"gX c #EBF6E6",
"hX c #E7F5E7",
"jX c #F6F9E4",
"kX c #FDFDE3",
"lX c #F4FBEA",
"zX c #FCFEEC",
"xX c #F1F5E5",
"cX c #E5FDF9",
"vX c #F4FEF3",
"bX c #FCFFF2",
"nX c #F4FFFB",
"mX c #FCFFF8",
"MX c #E2EFF5",
/* pixels */
"5 ` v   5 #   9 o O +   X       . < < , < < . O , O y +   3   y > - I u O + 7 + . < = . $ = .   .   .                           ",
"  v 9   5 #   5 + X X   .       , + + .   + < i   : O : 9 i 6 O t - - O - i + 7 < $ < $ . .   .   . .                           ",
"  * #   * #   +   +   o O       , . : # O , k u 6   7   7 O   oX- d d d > u + 7 $ . . $ . . o o   .                             ",
"#   X 5 #         X             +   , , + T c.` : z   6 #.n.m.V o./ F ( #.A.L O +   . 5 . . = o                                 ",
"5     5 .   X                 X O   +   , n.uX~.L O !.v.x x ~ I.J.J S B / A.A.O 3 8 @ 9 5   :                                   ",
"#     X     X             .   .   @ 3 O - U 4.~ 3 |.7X] Q s P A .XH J Z S o.|.r O z O @ 8   2 O                                 ",
"    X     .                     X X 2 2     w n G.XX~.x q.U n XX_.J M K F o.7.O O A O O t O r -                                 ",
"  5 ,     X                     2 X   @ @ X n !.R.4.pXoX^.I.sX@Xw.1.G y.} X.8.5.f 0.g O d @ - - O O O O   O O                   ",
"                5 X #   # j   %   X X w R.B.4.m.F.B.B.^.OX(.OXF..X2.2.J *.} ..) J F F XXA.> r r O s O O z O 6 +   < #   + X   X ",
"                  # 9 9 5   9 # 2 (.^.} 4.1XR.G.(.^.^.6X6X6XdX@X@X2.j.&.u.1.y.1.&.8.H / +.#.f.r - d 4 r - O < + i j 7     X X % ",
"                h 9     # 5 Y.U.v.G.[ m.N.m.m.nXdX(.B.I.R.^.;XOX.X&.&...=.=.=.2.H l.<.) D / A.@.) D.r - d z O i 7 k 7         & ",
"                    5 c ~.U.*X[ c.5X<X} <XnXlXR.7X^.B.^.(.^.<X+X.X1.1.1.1.u.=.=.j.i.-.j.+.@.+.+.) ( |.@Xr O z . . < < . & X X X ",
"                h # o   *X:XM.N.Y.c.` P } R ' m.} ' } ^.oXI.R.F.k.H @.O. ...D G K G G G D D @.F ;.F @XD.> - I u . < $ + * &   X ",
"                X   6   ~.uXU.*X~.*XE.7X%X=XN.T.^.C.B.(.=X(.6X^.K.<.6.g.>.i...$.$.=.i.e. .O.d.r.D #.f.A #.N + + + <     o & X X ",
"                    + 7 { U.:XfX'.&XT.~.E.fX:X;X7XoXB.B.G.R.;XXXf.+.+.d.O.u...$..X..G $.a.g.+.@.6.X.}.( - - u i , + .   % w X   ",
"                7 X   7 + L *X~.fXlXbXfXvX7XlXqX>X=X).(.(.;XfXoXP.s.;.z.O.g...a.t.2.x.l.r.r.g.g.;.+.A.#.- u - + + +   o l l 0 X ",
"          X # # # 9 X   # c 3XT.2XbX)./.rX,X8XrX[.].Q.Q.0X>X5XI.q.0.9.u.a.a.y.$.i.l.+.X.}.f.@.}.7.3.3.XXH.O , 7 + .   . o o X X ",
"X           # # ,     9   ` T.3X=XG.).V.E | Z.Z.].9XQ.| `.=XhXOXw.0.<.=.e.t.y.y.=.}.5.K.f.+.{.D *.9.0.C > ; O O + . . . X X X X ",
".         X # # *         c.[ v (.).vXgXQ.9XrX].8XrX[.b.W.`.vXdXI.w.:.&.$.t.p.h.a.z.+.#.D.f.6.f.8.J.Z 4.4 >   k + . .   X X     ",
"              +   X   l j   T V ' `.5XlXkXtXrXyXtXkX4XQ.;X/.hXdX(.J.>.&.e.y.h.h.l.r.X./ D.z.) }._ B L.X d y . O . . . .   X   X ",
"            .     k     5 c N.L R | Q.'.eXrX].kXrXjX8X,XeX/.7XhX#XJ.} $.y.h.p.p.r.z.*.K.3.7. XB Z A 1 1 X @ < O + . + o X X X X ",
"                    o j     9 N.R n /.Q./.kX>XzXxXwX,X[.0X/.gXcX#XJ.&.$.h.p.p.t.a.z.7.w.7.3.f.Z } X r 1 s 3   v O . : # o   X X ",
"                  #   #   j     & n } ' N.0X>X4XrXjX,XQ.5X5XlXhX#X_.1.2.y.t.t.p.l.:.9._ 7.0.Z 3.@ S   f   a 9     + # + O     @ ",
"                # 5   # v   9 o   ,Xn l Z.T.bXxXwXvXeXC.5XwXzX;X#X_.j.2.t.%.t.h.=.j.8.F.^ ! s.4 @   @   p   i , . O + +       X ",
"                X X               w c.P n W.-X:XlXvX,XQ.5XeX4XgX#XJ.2.y.y.t.h.h.1.<.@Xf ^ ! F.r & X 2 3 O @ :           O O     ",
"                      . # 5 9 q   X o R Y P T.(.%XbXgXC.[.kXkX7X#Xw.} 2.t.t.h.y.g.*.^ ] ~   f O X     @   O : + O   O       O O ",
"                        # 5 h j o   0 0 w P R 4.(.hX5XQ./.].].,XOXw.} 2.2.y.h.2.,.8.C 3.@ 1 X X ;   # %     +       O O O   O   ",
"                        + # 5 0 .   m     ` C R %XhX7X`.5X4X,XrX#XJ.2.2.t.y.h.2.@.S XX  2 @ 1 X %   # 5 O   O   O   O   O O O O ",
"                  X + X   X       *   5 t 3 P ~ m.fX7XZ.).kXkXqX<XL.s.r.2.y.h.u.F N #.8   5   b h .   o     # O O     O O O O O ",
"                  .   # # .     + .   5 8   8 ] v.<X:XB.'.rXtX8X;XP.8.r.2.p.g.r.o./ V   k   ` c.{ b o       # #     O O O O O O ",
"                      X O   X   * . c     s O U A.<X7X=X8XtXyXzX1XP.d.r.+.a.g.r.o.A.  5 . b c.*Xb.T * o   X + O O   O O O O O O ",
"                        .     . . 5   O 8   3 I V ~.;XB.).jXkXwX7XXXk.d.e.a.g.+.5.U p . 9 9 m M.[ j . . # # #         O O O O O ",
"X                                 o   5 h O   #.n.Y.:XY.&X8XzX0X+X*.k.*.=.l.O.8.H.1X5   o # 2 t : # +                           ",
".               +               X #     7   7 c.3XE.Y.~.>X&X,X2X6X9.j.1.&.d.;.D.] & 0 v X 2 O s @ #                             ",
"        X   X . X               o *     # O t ` ~.*XY.E.*XbXbXgX6X9.8.1.-.u.5.{.H.oXo   *   s @ o                               ",
"          .     # o               * o   # # + k S.3X:X&XE.zXzXgXiX8.8.9.:.<.5.{.q.    l   X O O                                 ",
"                # .               o o   + o O   n.S.U.3X&XqX3XvX6Xk.8.s.>.O.;.F.+X    =   2 8 O                                 ",
"    X   . X     X X             X o       # +   [ c.n.~.3XbXkXgX#XD.s.d.-.O.5.7.O l 0 $ #   t t                                 ",
"                +           .   #     o   O , + U.*X&XY.].zXzXoX+XL.8.6.-.-.8.3.nX  o . o c > O O       X                       ",
"                                o     *     + + ~.E.&X~.3X&XlXbX1X.X8.-.O.<.f.#.@ X 9 . *   O > O X # + +                       ",
"  .                                             *X~.*X[ Q.>X&X0XoXL.) ;.z.z.|.K.-   . . .   ; 3                                 ",
"    O # #     #                                 5 ` c.Y.3XxX8X;X1XF.k.K.+.+.z.#.- # $ . .   O -                                 ",
"      # #     #                             O     [ [ *X:XxXzX3XiX@Xs.X.g.f.f.|.@   o . .   - -                                 ",
"#     o X                                       i [ c.U.Q.qXbXxXpXA.7.k.+.6.6.r   . . . . $ u u                                 ",
"# X   X +     X                                   9 [ | *XlXzXhX!.iXo.@.K.6./ - ; o . . = 7 z c                                 ",
"  # 7 #       .                           O   O     [ c.>XzXlX0XpX@X8.5./ 6.K.M @ o . . . $ u y                                 ",
"  v T l                                         q 5 Y B.`.qXwX0X1XP.k.o.6.d.g - O   . . . . O :                                 ",
"2 { M.` 9 # #                                     $ h Y.E.&XjX7XcX! 8.X.6.{.g >     . $ . . + -                                 ",
"5 T ~ v # # X   X           X X O             X o 0 /.5XlXhX;X} XXk.F.F.3.#.1 @     # + X       #     X +     # # 5 # X .       ",
"  q j 5     #   h 7 # .       # . O           X & n -X;XhXlX`.} 3.^ XX0.0.+X@ 1 O   .   . o o X       # # 2 9 c #         X X   ",
"  X #     # # # j 9 #     X # * . O O           0 P W.-X0XlX7X<XsXsX$X3.4.H.8   ;       . o o     # # .   o 9 k # .       #   . ",
"#     + # # # # 9 5       # + # O .           X X % P T./.R./.cXsX$XsX3.A.^.  t o O               # #     . O X # X   X #       ",
"+   . # X               # #     .             X   X w B.).B.| oX#XcX} ^ _   1 O O 2 7 0 o           # o O # # .     + # X       ",
"    # % O     .       o         O X             X % % (.<X7X} R S ^ 3.0.I.z   3 O 5 k h *     o       # o   X 5 o     X X     # ",
"  # # # # # # X           X # 9             X X       oX%XhXM.~ F.XX0.!.F.  > O   # 7 5 #     X #   X #     9 T c :     X     X ",
"X # +     # o     # +     # h L .             O w X   fX(.7XoX1XiXXX1XP.4.3   +       .         #   . :   X L U.` j     #       ",
"                          # * , X   .         X   8 &   n.U.H.4.] ^ P.A.3 >     O         . X       # # O # m } ` b X   X X     ",
"                X         X # # .               2   8 ; |.1XU.m.U +XA.] oXu : i   O .           #     X . . 9 L j 2     .     + ",
"                            # o .                   >   uXH.MX[ 4.f S.MX  > v O   . O       X X #     . X     #               # ",
"                  .                           @ @ 8 @ O u A.z x r s ] s O O   z O .             #     X #           X #         ",
"                                          X   @   t O O a - Q N C v.z O p O k : . O           X o     o X .   O   # # # o O     ",
"                                            + + t   > t > a z A.Q H.N 3 O z     .   .     X       O           # # X       # o   ",
"                                            O @ p O O O z O t u r O Q O < , . i . O . X X   X   o X                       # X   ",
"                    .   X                   # @ O ; - t - C r O - t O p u O   O                 O       # # #     # *     + X   "
};