/* XPM */
static char *player41678500744[] = {
/* columns rows colors chars-per-pixel */
"64 64 245 2 ",
"   c #010102",
".  c #0B0302",
"X  c #020A04",
"o  c #0B0906",
"O  c #02030A",
"+  c #0B030A",
"@  c #030A0B",
"#  c #0B0B0B",
"$  c #12040D",
"%  c #130C0D",
"&  c #110804",
"*  c #0A130B",
"=  c #13120F",
"-  c #020C13",
";  c #0C0D12",
":  c #060917",
">  c #130B14",
",  c #190C13",
"<  c #031214",
"1  c #0B1213",
"2  c #0C1914",
"3  c #02151A",
"4  c #0C131B",
"5  c #071A1B",
"6  c #131313",
"7  c #14141A",
"8  c #1B151C",
"9  c #141B1B",
"0  c #1B1B1B",
"q  c #171714",
"w  c #20151B",
"e  c #18201C",
"r  c #24231E",
"t  c #091822",
"y  c #131B23",
"u  c #1B1C22",
"i  c #131521",
"p  c #231C24",
"a  c #0C252A",
"s  c #152323",
"d  c #1C2325",
"f  c #19262C",
"g  c #1C2832",
"h  c #0F3035",
"j  c #232323",
"k  c #24242A",
"l  c #2A2B2A",
"z  c #26292B",
"x  c #2D342E",
"c  c #2A2B34",
"v  c #322B35",
"b  c #293539",
"n  c #333333",
"m  c #343A3C",
"M  c #3C3C3C",
"N  c #353833",
"B  c #312C2D",
"V  c #354137",
"C  c #193B45",
"Z  c #003341",
"A  c #363D44",
"S  c #2D3041",
"D  c #294446",
"F  c #394646",
"G  c #3B4E51",
"H  c #35585B",
"J  c #2C4F55",
"K  c #27596A",
"L  c #365C65",
"P  c #37626A",
"I  c #386575",
"U  c #2A6875",
"Y  c #1E5C6B",
"T  c #444746",
"R  c #4B544D",
"E  c #485455",
"W  c #585957",
"Q  c #4D4F52",
"!  c #4A5E62",
"~  c #515E6E",
"^  c #45666A",
"/  c #576867",
"(  c #496B75",
")  c #48747B",
"_  c #56777B",
"`  c #526E75",
"'  c #646464",
"]  c #666A69",
"[  c #69766C",
"{  c #687876",
"}  c #727272",
"|  c #797A77",
" . c #6F726F",
".. c #526359",
"X. c #75827B",
"o. c #6F8473",
"O. c #94977F",
"+. c #376A83",
"@. c #397686",
"#. c #3B7C95",
"$. c #487989",
"%. c #567E8B",
"&. c #577B87",
"*. c #497D93",
"=. c #517488",
"-. c #637C84",
";. c #7B7A80",
":. c #4E7EA2",
">. c #807F85",
",. c #3E808E",
"<. c #3D8BA5",
"1. c #5A858A",
"2. c #4C8C9A",
"3. c #498597",
"4. c #538393",
"5. c #558C9C",
"6. c #5B8A9B",
"7. c #5A8795",
"8. c #55919F",
"9. c #5C939E",
"0. c #599596",
"q. c #4E939C",
"w. c #68888A",
"e. c #778989",
"r. c #668B97",
"t. c #798C95",
"y. c #6C939C",
"u. c #67929B",
"i. c #77979A",
"p. c #70908B",
"a. c #478CA5",
"s. c #578CA6",
"d. c #4695AC",
"f. c #4894AA",
"g. c #5492A4",
"h. c #5B94AA",
"j. c #5997A8",
"k. c #4B98B2",
"l. c #549AB4",
"z. c #579BB6",
"x. c #6797A5",
"c. c #7A9EAD",
"v. c #769BA5",
"b. c #679BB4",
"n. c #6E90A7",
"m. c #56A1BA",
"M. c #5CA2AC",
"N. c #6AA2AA",
"B. c #7AA6A8",
"V. c #68A4BA",
"C. c #79A7B5",
"Z. c #7CB0BD",
"A. c #6EA8C3",
"S. c #868A87",
"D. c #88958A",
"F. c #879797",
"G. c #959995",
"H. c #949488",
"J. c #99A59B",
"K. c #89A194",
"L. c #A5AA9A",
"P. c #B0B49F",
"I. c #A3A386",
"U. c #88A6A9",
"Y. c #99AAA8",
"T. c #9AB3AB",
"R. c #8AAAB6",
"E. c #9BACB5",
"W. c #8AB6B7",
"Q. c #98B7B9",
"!. c #83B4AC",
"~. c #A3A3A4",
"^. c #A7ACA7",
"/. c #ACB5AB",
"(. c #A6B7AB",
"). c #B6B9A9",
"_. c #ABAEB1",
"`. c #AAB9B5",
"'. c #B5B4B5",
"]. c #B3BEB5",
"[. c #BABCB8",
"{. c #BDC2AC",
"}. c #ABC1B8",
"|. c #BCC3B3",
" X c #B2C4BC",
".X c #BAC5B9",
"XX c #C1C5AE",
"oX c #C6CAB9",
"OX c #CBD3BC",
"+X c #D4D4BC",
"@X c #DCDABC",
"#X c #99BAC6",
"$X c #8BB4C5",
"%X c #A7BCC3",
"&X c #98C5CC",
"*X c #A8C5C9",
"=X c #BCCDC3",
"-X c #B6C9C7",
";X c #B7D4C8",
":X c #B3CED5",
">X c #B8D9D5",
",X c #A9CAD1",
"<X c #B9E0DD",
"1X c #ACDCE9",
"2X c #CACDC5",
"3X c #C5C6C5",
"4X c #C4DBCE",
"5X c #C9D4C8",
"6X c #DADECB",
"7X c #D4D9C7",
"8X c #C3DBD3",
"9X c #CADBD8",
"0X c #D4DBD6",
"qX c #C5CED3",
"wX c #C7E4D9",
"eX c #DAE5D5",
"rX c #D9E6DB",
"tX c #DDE1CC",
"yX c #E5E7CD",
"uX c #F1EDCC",
"iX c #EAECD5",
"pX c #E4ECDB",
"aX c #E5EBD4",
"sX c #EEF1DB",
"dX c #E4F1DB",
"fX c #F2F4DC",
"gX c #F9F7D7",
"hX c #F0EFD3",
"jX c #C7DAE1",
"kX c #CAE8E4",
"lX c #D6EAE3",
"zX c #DAFEF8",
"xX c #CCF4F1",
"cX c #E6EBE6",
"vX c #E5F2E5",
"bX c #EBF4E4",
"nX c #EDF9E9",
"mX c #F1F6E3",
"MX c #FBFDE4",
"NX c #F4FCEC",
"BX c #FFFFEC",
"VX c #F4F8E6",
"CX c #F6FFF1",
"ZX c #F8FFF7",
"AX c #E8F9FA",
/* pixels */
"                X     % #       #     X %                   .                                                       # # X   X # ",
"                #         X 0 T } M #   O     #                                                                 6 #       # n Q ",
"                X         . n ' ~.' 0         X .       X                                                       # # O     # p B ",
"                    # #     0 M ' N #   . #                                     .                                 X % 6 #       ",
"                    . # X     # 6 #     # X           X                               X   O                     X . X + X o # # ",
"                X                               X   .       .                             X . X                 o   O     . # ; ",
"                o O       @ X .   X .                                                 X . o o @                     X o o X     ",
"                  O o X   . @ +     X                         X                         X + # #                 +         # # 6 ",
"                        0 l j #                 . X . O X . . O X       X O     6       X # >   #   6 #   #   0           X . # ",
"                .       6 0 q X                 O     X X     X o O     X . . o 8 6   6   #   o #     #   q                 O X ",
"                # X     X # # O                     .   O       X . # X     O X   0 0     # #     0 X %     q j         O X . + ",
"                        O .                                       O .           j   #   M     w   6   # j   #               X   ",
"X .           X       O . X                                         #     X o   # # .   6 0 8   j } '.[._.. 6 #             .   ",
"O           X + %     X # #                                       # + X # q q     e O l   } W M M G.cXqX'.#   6                 ",
"          X # # z %     # o   X                                   . @   > j 0   N   0 G.W ] G.rX3X3X~.H.[.~.l                   ",
"          o # 6 M 0     @ # o +                                         6 z 0       | T m R 0X'.[.VX[.G.| _.%   O X .     O     ",
"          .   .   .       . O                   o # O     # #     8   #   9   # X X X./ { (.wXrXcX3X3X~.D.D.9   *     ; + + > + ",
"            O X     O   O O .                       o o ; # +   ; O   4 X     z rXV V [ wX8X=XZXcX3X'.G.0XJ.`.* 9 @     O $ + . ",
"                    X     . O O                 O   o ; #     O   A O O Q 4 X D.V X.4X].eXnX.X.XZX)./.} ].S..XX   * 1 # > + + , ",
"                .   O                   O       # O O @ O     ; ;   d @   # / R x { =X.XbXeXD.7XZX^.2X .e.D.o.l   2 - O + O + p ",
"                  X               O         O   O O + ; ; + ; 4 c O c 5 X 1 / N (.J.{.eXBX2X .mXcXoX5X| .X(.D.Y.s 1 O > 8 + O + ",
"O X                                 O O O     O   @ ; + ; ; O O O f @ @ ] E R ].L.nXBXmXmXaXO.yXVX0XL.[ ZXF..XY.  @ Q >.Q > . $ ",
"o + O X O X             X         O O         O O > + O ; k k > -   5 E F ] /.5XCXpX6XyXhXhXI.MXCX0XG.[ vXY.`.{ s e S.jX;.u > 7 ",
"# @ + @ + O X     X     X   X           O O     O ; O   u ' >.} F G / e.V e..X3XmXbXVXBXhXyXI.MXVX'.(.F.`.ZX}.D. XF ' _.] k w O ",
"O ; 9   d   4 * 1   X   X e       9     p   , _.~._.} >.'.'.3X~.F e.F.T./.].rXpXsXbXMXMXhXyX@X@X7XvX}.o.lXvX XY.`.F.d A c @ O 8 ",
"O i - O   #         *   e ..V q X >   j } } ] '.2X3XH.^.3X'.'._.[.0XrXvXbXvXZXNXBXfXiXmXMXhX@X+XOX;XJ.[  X.X}.T.F. X`.1 k   O O ",
"O O O 1 4 - # d     2 * R {.oX|.r R ] } >.S.G.oX2X[.G.[.0X).'.|.5XeX7XyXpXaXbX6XsX7X+XyXyX+XP.XX(.G.O.[ J.J.T.J.9X X9X3XO m 8 p ",
"i : 4 O   O   O cX4XoXJ.^.4XeXpXG.L.L.H.L.|.).S.[.).^.[.oX'.P.oXL.).L.).).).XXP.P.).{.OX).O.O.P..XJ.}.}.}.}.4X X8XG { F.O   >   ",
"O g O S 4 AX'.F.=X5XeX(./.eXrXnXoX+X7X|.).6XeXL.+X6X0XoX7XoX).oXOXyXOX@X+XP.oXXXtXtXyXaX+X{.oXsX5XJ.=X=X.X}.wX;X}.{ F m F.u u ; ",
"A O S O e._.9XS.rXlXeXJ.P.nXCXnXXXiXBXVX7X6XsXtX6XhXBXyXiXVX6XaXuXgXuXgXuX+XiXgXfX7X|.{.|.oX5X4X7X(. X(.}.}.wX.XT.E 5 m G.  O ; ",
"g : : { G qXY.-XqXG.D.D.}.eXOX7XMXsXaXiXBXBXiXOXiXiXBXmXMXBXaXBXuXgXuXgXuX@XgXgXNXBXmXdXnXNXbXeXvX=X4X}.;X;XrX;XlXb E / F.O k O ",
"O y %Xc c { E.} 9XR ..4XCX4Xo.X.bXbXpXpXsXeX7XdXBXrXVXvXVXpX.XbXMXgXaXgXiXOXdXdXOXdXNXbXrXeX5X(.8X-X;XT.>X;X,X!.*X*X! U.b _.O @ ",
"O y ! F g t.E ` wX!.J >XzXxXw.}.kX=XlX-XrXwX>X-X8X9XwXkX9X8X>X;XrXwX;XwX;X;X;XwXwXwX<X4X;X(.K.D.Q.i.v.v.&X&X1X1XA.&XW.R.&.@ 5 1 ",
"b O Y.F.y D lX^ *X*Xo.zXxXxXo.U._ U.*X8XW.*XU.U.W.W.R.B.v.x.y.i.&XQ.Q.W.!.B.!.!.W.!.B.!.!.p.p.p.v.1.1.$.j.,.3.,.g.U $.K ` 3 O - ",
"O E A S ! F.`.Y.:Xp.p.( zX<X>XB.B.U.y.&.w.y.B.&.u.u.u.u.x.x.c.b.B.N.x.x.0.0.0.0.N.0.4.0.0.2.1.0.u.1.6.*.j.$.2.@.@.Z P h ` f @ F ",
"u O y O : jX-.F.-X-XT.` w.1.w.p.^ r.1.u.r.%.v.b.u.9.x.x.x.h.4.$.8.5.8.8.q.q.q.M.M.q.q.2.0.o.q.9.4.$.6.$.9.3.8.3.N.K I C -.3   9 ",
": i O y @ O %X5 { F.i.-.e.U.F.i.B.u.P C.:.c.$.4.*.*.*.6.s.6.5.3.3.a.g.a.<.q.d.d.d.d.k.k.<.#.a.s.x.5.8.$.8.,.2.3.s.L D L F.i O O ",
"O k v O ; ; O 7 y O y s U.*X-X-.&X%.c.=.$Xr.u.n.r.:.*.*.s.n.b.b.s.l.l.k.<.d.d.d.<.<.k.z.d.:.a.h.V.8.j.@.8.2.9.3.) &.r.E.t.: p > ",
"O ;   k   k O   # 4 X y   s @ 3 - t ,X^ U.&.$X1Xc.n.r.r.r.:.=.+.h.z.m.z.k.k.m.k.k.k.k.m.m.k.k.k.3.U @.Y 3.2.0.$.n.u.U.E.n O O + ",
"+ >   > c   c @ 7   d O c   s O 3 O O - O jX` U.=.-.t.R.#X#XR.U.*.h.M.g.f.M.m.M.m.k.d.k.A.m.a.:.j.3.,.U 0.9.x.) =.- - g O p $ $ ",
"  . . O + + + +   +     O # #     X     X @ X   @ 9XO -Xt.F.t.R.r.%.=.P 4.3.5.j.M.8.j.V.b.h.s.h.g.A.@.U M.I 4.P a - O 4 > + $ w ",
"O       O . O X   % 7 # O   O X     . .   X     =   x @ X %XX -X~ U.&.C h B.B.I 7.N.Z.x.*.R.$Xs.g.k.3.Y N.C.7.P y.G -   > % $ $ ",
"                  8 z 0 +     . . . . . . . o . & =       6   e s   G U.Q.D w.kXr.i.r.&.:.-.-.:.V.#.s.Y 0.9.L ! a @ X     . . , ",
"                  q j 6     O . & . & & & . . o . %   q p   0   o 0   2 X { ^ h Q.P y.*X~ -.%X:.A.@.3.@.5.) 1.`.X X 4 e , . . & ",
"    X     X       o *       .   . . . % &     & 6   O #   7 9 ;     N   2 @ / _ ` p.v.w.r.R.R.-.b.s.:.+.+.K w.-.f 2   X = , & . ",
"X X X X     X             X o   .   & 0 =     # ; u   7 O O u O 0 x   9 X 5 @ D H U.r.( R.U.=.R.h.A.#.K I ( w.@ X         . % , ",
"X X X   X                 # #       6 k u O O ; O O t : 4 y - y Q / Q 1 s X C *Xi.H y.,X-.:.$X:.:.:.:.I 7.U.i.5 X 2 l r o     & ",
"                  X o X o % .   O @ 9 c k : O 4 i : y : y O i y G.cXS.7 2 a X 5 3 u.^ C R.c.~ c.$X+.n.+.) ( b X X X X   . o .   ",
"X X O   X # X       .         o                           # ; 6 ;.H.| x X @ - X X * ` J P Z.w.1.:.%.K =.( ( 3 : O           .   ",
"X o .               O X X X O                               @ # r N B %   X 2 @ 5 h X ( L o.1.!.-.=.r.( ( r.y a O             . ",
"  X X O       #       . + X                     O X             . & &     X @ @ X X b @ Q.H U.&.R.$Xn.:X,Xg 3 O O             . ",
"      . .   X % # # #       X &                 # #             , & o # #       @ g X 5 @ U.D *X~ &.~ %X%XO t O O   O           ",
"X     X o     O     + .       X                 + o X           %     . # X   @ < X f O - 4 @ E.y : ~ : y S O f O               ",
"#     X       #       # # #                     X               o       . O @ ;   # 4 1 A O : 4 : : S : O 4 O ;                 ",
".   X #     0 M M j     = 0 6 O                                 # ; # + O O   O > k   O O p c O : i : v S O 7 7   O             ",
"    % >   # M S.G.Q X   # j j =                                   # 1 O   O O   + . v k . B   B > k + : O 8 O O                 ",
"            l ' ' N #   X 6 6 #                                           O       O . O .   + $ $ > > + + 8 p .                 ",
"%     O     6 l j 6         .                                   O   O   O   O   + + + . . . . + + + $ $ + p v q                 ",
"q X   X X                   X o                                     O O O     O ; + + +   .   +   O   $ $ , w 6                 ",
"% O   # ; .       X % # X     +                                 O O O O O O     + # + o .   . . ,     % .                       ",
".   X # #   X o                                                 O O O O O     O O + @ X   X X o N = * q o   X X                 ",
"    X         o .       O . X                                   O O O O O O O       X   X X X * x = * 2 X   * #                 ",
"    .           X       X # # o                                 O O O O O O     X X X       X X 2 X X X X X *                   ",
"        X .         O                                           O O O O O   O O O X X X   X X X X   X X   X X                   "
};