/* XPM */
static char *_b1400d3fa5b4ff2cdd720e2ba25c3b0AUbc06EyrkDaNCKT[] = {
/* columns rows colors chars-per-pixel */
"64 64 247 2 ",
"   c #010101",
".  c #0A0202",
"X  c #020903",
"o  c #0B0A04",
"O  c #02030A",
"+  c #0B040A",
"@  c #030A0B",
"#  c #0B0B0B",
"$  c #120202",
"%  c #130C0D",
"&  c #110709",
"*  c #02110D",
"=  c #0B120D",
"-  c #041107",
";  c #13100C",
":  c #19100B",
">  c #000412",
",  c #020C13",
"<  c #0C0C12",
"1  c #090915",
"2  c #140A13",
"3  c #011315",
"4  c #0C1313",
"5  c #0D141A",
"6  c #071919",
"7  c #131313",
"8  c #131B14",
"9  c #1B151A",
"0  c #141C1C",
"q  c #1B1B1C",
"w  c #151519",
"e  c #231A19",
"r  c #19221D",
"t  c #202318",
"y  c #051A23",
"u  c #141B23",
"i  c #1B1C26",
"p  c #251A25",
"a  c #092526",
"s  c #1D2323",
"d  c #182728",
"f  c #1D2833",
"g  c #0E3138",
"h  c #232324",
"j  c #24232A",
"k  c #2C2E2E",
"l  c #252929",
"z  c #332B2A",
"x  c #26322C",
"c  c #2B2C35",
"v  c #293635",
"b  c #363737",
"n  c #343031",
"m  c #36433E",
"M  c #2E4237",
"N  c #343D45",
"B  c #003845",
"V  c #1D4247",
"C  c #1A4450",
"Z  c #374745",
"A  c #3A534A",
"S  c #2F5051",
"D  c #15596C",
"F  c #2A5A66",
"G  c #385D63",
"H  c #2E5A71",
"J  c #1B6372",
"K  c #38646B",
"L  c #376B79",
"P  c #34707C",
"I  c #454545",
"U  c #47544D",
"Y  c #485657",
"T  c #525253",
"R  c #55635D",
"E  c #4D6259",
"W  c #4C5964",
"Q  c #476766",
"!  c #5B6967",
"~  c #446B75",
"^  c #506B78",
"/  c #4B7378",
"(  c #577879",
")  c #50706F",
"_  c #656966",
"`  c #6A756B",
"'  c #697776",
"]  c #787974",
"[  c #6E7369",
"{  c #6C5A66",
"}  c #807876",
"|  c #688077",
" . c #73827B",
".. c #83897F",
"X. c #95977C",
"o. c #356984",
"O. c #397989",
"+. c #327890",
"@. c #477A88",
"#. c #577986",
"$. c #527791",
"%. c #687E84",
"&. c #637C92",
"*. c #3E8496",
"=. c #3D88A7",
"-. c #578389",
";. c #438293",
":. c #4B8494",
">. c #4C8B9C",
",. c #46889A",
"<. c #558C94",
"1. c #5C8B93",
"2. c #538D9D",
"3. c #588797",
"4. c #5D939C",
"5. c #55909B",
"6. c #508B93",
"7. c #668688",
"8. c #788788",
"9. c #69928E",
"0. c #668898",
"q. c #63959D",
"w. c #6B969A",
"e. c #72969A",
"r. c #768D93",
"t. c #75A298",
"y. c #438DAB",
"u. c #4888A6",
"i. c #538DA6",
"p. c #4B93AC",
"a. c #4890A6",
"s. c #5493A4",
"d. c #5997A8",
"f. c #4B95B4",
"g. c #4C99B7",
"h. c #5599B5",
"j. c #508EB2",
"k. c #668BA7",
"l. c #6B9AA4",
"z. c #679AA5",
"x. c #779CA6",
"c. c #6399B5",
"v. c #7196B3",
"b. c #5AA2BA",
"n. c #5FA1AF",
"m. c #6DA2AD",
"M. c #77A4A7",
"N. c #68A3B6",
"B. c #7AA8B4",
"V. c #79B2B9",
"C. c #5B9DC1",
"Z. c #679FC2",
"A. c #65A7C3",
"S. c #7CAFCE",
"D. c #868B87",
"F. c #889589",
"G. c #959988",
"H. c #869698",
"J. c #969B97",
"K. c #90898F",
"L. c #98A598",
"P. c #8FA79A",
"I. c #A1A99A",
"U. c #B0B39E",
"Y. c #83AEAC",
"T. c #87A6A7",
"R. c #99AAA7",
"E. c #98B7AB",
"W. c #85A6B5",
"Q. c #98ACB5",
"!. c #8AB5B9",
"~. c #96B7B9",
"^. c #87B0AC",
"/. c #A7ADA7",
"(. c #A9B5A9",
"). c #B4BBAE",
"_. c #B7B9A7",
"`. c #ACB9B5",
"'. c #B6BBB6",
"]. c #A6AEB2",
"[. c #C2BFB6",
"{. c #BCC1AC",
"}. c #AEC4B8",
"|. c #BCC2B5",
" X c #B3C3B8",
".X c #BBC4BA",
"XX c #B7C7B8",
"oX c #C5C2AE",
"OX c #C3CCBA",
"+X c #C9CAB8",
"@X c #CAD2BD",
"#X c #D3D4BC",
"$X c #DAD8BB",
"%X c #D0CAB4",
"&X c #E1D8BB",
"*X c #94B5C6",
"=X c #A6B9C2",
"-X c #99C6C9",
";X c #99C7D5",
":X c #A7C8C5",
">X c #B8C9C5",
",X c #B9D3C8",
"<X c #A5C8D3",
"1X c #B8D9D6",
"2X c #B2D0CE",
"3X c #BEE1DD",
"4X c #9ED8E3",
"5X c #B5E1EA",
"6X c #C2CCC4",
"7X c #C5CAC8",
"8X c #C7D6C9",
"9X c #D7D8C6",
"0X c #C7DBD4",
"qX c #D7DBD6",
"wX c #C5CED3",
"eX c #E2DECA",
"rX c #C8E4DA",
"tX c #DCE5D5",
"yX c #D6E6D9",
"uX c #D7E0C3",
"iX c #E4E3CD",
"pX c #E8EBCB",
"aX c #F2EDCF",
"sX c #E5E4D1",
"dX c #ECEBD5",
"fX c #E4EBDC",
"gX c #ECEEDC",
"hX c #E6E6D6",
"jX c #E9F1DB",
"kX c #F4F3DD",
"lX c #F9F6DA",
"zX c #F4ECD6",
"xX c #D3E9E4",
"cX c #DAFDFA",
"vX c #CAECE5",
"bX c #E8ECE3",
"nX c #E8F5E6",
"mX c #F3F3E2",
"MX c #FCFCE4",
"NX c #F3FCEB",
"BX c #FEFEEC",
"VX c #F5FAE4",
"CX c #F4FFF2",
"ZX c #FBFFF3",
"AX c #F8FFF9",
"SX c #E7F9FA",
"DX c #DDDBE2",
/* pixels */
"                  = -   X X   X X X X X X X X X     X   O   O                                                       o           ",
"                  X     - X X 8 - X X X   X   X       O O   O O                                 # # O o       o           X     ",
"                X X   X = ; = v X X X X X X           O O O O                                     O o X       o O       o O     ",
"                # o   o 8 - ; k o   X                     O   O                                         X       #   . # O     o ",
"                + +   + ;     :   .   .   o o .   O     O   O                                   o     o # < o       o < #     4 ",
"                % e 7 & % . . +   . . . . . . #         O                                       o         o           o o     w ",
"                7 z p + 2 2 + + . . . . . . . .                                                     o       4 h k #           ; ",
"                + p 9 + + + + + & . . . . .                                                       4 w +   # n T _ k     o     o ",
"                + O 2 + > + p + i . 9   j %   +           # o       o                           7 h l #   # T J.D.I o   # #   o ",
"            O   + 1 > c c + i >   h +     % 9 #           # # o                                   w q 7     h I I 9     O o   # ",
"              O > O i > > N > 1 1     v < j   X o             o               o                   . # # #       %             # ",
"              O d O N f > W > y R.@ d , X d   l X     o X     o         o O # #                 #       o #     o     o o     O ",
"  .             O , > =X*X^ &.^ :XA 9.X d X x         # & o o ;           o # #                 #         # # # # o   o o       ",
"            O O > , y `.<Xr.Q.W.) :XV E.- d X X X X X   o $ $                                       o           #         O X   ",
".             O f g 0.~ ~ $.~ #.t.9.| G K X d a - = X   $ z n p # .                                 X   o                 @     ",
". .   .       X O , ~ / #.F 3.z.<.-.!.S S 9.X * X * X   z } K.} w 4 # O       O                 o                 X # @ o o . O ",
"  o : o   X X X X g ~ ~ o.k.o.S.Z.H W.W.C o.0.5 3 @ a 5 w K.DXK.c > > , O > > , 5     i c i +   O     o X o X X       X   X X   ",
". .   o r l 8 X 3 e.M.3.o.j.C.$.&.*X&.&.;Xk.F l.-XV X i 1 T { T i > u 1 , 5 O O 1 O O q h 4 +   o X                     X     X ",
": $           X @ -.~ P D +.A.$.Z.$.W.W.~ 1.W.G V @ y   9   z p O u   > 5 O l p +     % 7 . .   o .                   X   X X X ",
". . o & X - 6 d | -.F O.o.$.C.C.&.*XW.&.&.x.w.~ / ) * a   n .   7 i < 7   %   :     . . $ . . .         # # .                   ",
"$ . . % t 8 X X -X| P 6.+.*.+.A.&.Q.&.#.<Xx.G ~.a K | @ 3 O 0 +   z   k o o .   .   . . . . . o o     + e j 7                   ",
": $ .       X a K G 5.>.D =.+.V.&.#.&.0.-.0.l.1.5X7.V ~.T.A   0 0   ; o   X ; o   . . . . . . . o     # h l 7   +   +           ",
"$ $ & #   O Z 9.K <.V.n.D *.p.p.&.*XZ.&.k.V.m.<.P m.c.g C 7.W.G `.  >X  # v   =       o X o X   +     O 7 w 1   +       +       ",
"$ $ . % @ O @ g F :.O.d.J +.b.=.v.j.k.v.N.c.s.h.c.>.O.@.L @.6.-.W.r.Q.7.1XO xXO X @ X   @ * @   O X O         O O + O +   +   . ",
"$ $ e   s , , / / 4.s.s.J *.=.p.$.j.Z.Z.h.j.f.A.b.b.b.p.p.h.p.;.B.!.*X*X^.e.#.#.M.) 1XO 3 @ @ 6 O 0   l O s   w @ n   j 2   2 + ",
"$ .   b ].T.w.m.;.d.,.,.J P *.*.j.j.C.C.b.g.f.f.f.g.g.g.g.b.b.p.o.@.:.3.3.q.k.B.5XW.$.M.~ <Xy 3 , @ a   u O 5 >   O j   j O 1 O ",
"% i 1 D.E.r.-.;.6.d.>.s.O.a.2.h.j.j.=.j.b.g.y.=.y.y.y.y.f.g.g.p.N.c.d.2.@.@.3.2.4.4.<.V.@.B.6.<X( >X=XT.a u O u 5 O < 1 O c p + ",
"    5 H.G V F 5.*.6.*.a.O.s.s.N.C.j.+.$.p.g.p.p.p.p.a.y.y.p.p.u.,.i.s.2.u.:.:.:.6.@.m.<.B.H q.l.e.T.R.7.| H.H.' y >XO O u   w 1 ",
"w   3 ' g K D m.*.,.*.s.*.5.;.<.j.$.6.6.>.a.4.n.n.s.s.i.s.s.2.s.*.6.5.d.d.d.4.4.z.m.6.<.q.<.<.L 9.7.7.7.) Q.,X>XH.%.0X, O i O i ",
"m X d ( g L g O.*.,.*.n.;.6.:.4.s.u.<.5.<.<.4.M.z.4.3.q.l.z.z.m.m.m.m.d.q.q.4.q.6.M.9.<.-.t.M.M.Y.1X3XSX) 9.r.2XR.].T.W v N Y O ",
"@ X 6 ) G ;.L >.>.a.*.d.*.6.@.w.1.9.t.M.^.t.^.!.^.T.M.^.Q.!.~.-Xw.q.q.t.M.V.!.!.M.M.:X!.1X:X^.| M.| cXvXcX7.<X:XQ xXZ y H.Q.O c ",
"@ 6 X ( M.*X-XV.4X4X!.;Xl.M.x.~.t.t.~.2X3XrXrXyXrX8X>X0X0X0XrXxX1X1X1X3X3XrXrXrXXX1XvXvX}.vX:XvX:X9.cXcX1XS R.0X^ Y 8.f N W u > ",
"6   E.m E.Q :X1X^.,X:X2XE.>X>X0XE.,XrXfXbXCXgX#XdXdX$XpXkXpXlXVXjXXXfXNXNXNXhXNXhXhXtXfXVXfXtXmXF.| @XCX0XR E 0X' ].' c N =Xu + ",
"  l   8.R U M rXXXyX,X8X}.8X.XfXyXnXNXnXgXmXBXBXMXlX$XaXlXpXlXpXMXpXBXMXkXBXdXdX%XkXBXBXmXsXdXMX8X@XuX}.F.D.L.8X>XR.wXY ^ 1 > f ",
"  *   8.x 0 E P.}.rX(.}.(.|.I.8XuX8XXXXX).oX9XzXzXaX$XaXlXlXlXaXgXiXkXsXeXBXmXsXeXdXeXeXmXBXgX_.NXCXNX(.L.yXbXyXD.wX].8.> c O N ",
"  s r 8.x A | E.XXrX}.@X8XXXL.@XjXXX{.9XdXsXeXiXoX%X_.%X#X@XuX@X+X{.@X@X+X9XqX+X/.9XsXoX_.#X9X[.nXjXyX(.(.8X7X>XJ.`.SX1 N > j > ",
"  @     H.` Z 8X}.8X}.XX(.).L.oXU.X.X.{.#X[.U.U._.oX_.[._.I.{.I.'._.).7XoXU.).).G./.+X/...J./.G.fXtXtX(.L.}.8XnXX     O O 5 > u ",
"s 4 x   ,X8X}.rXE.E.P.P.` G.L._.{.{.@XpXiX9X$XkXeXkXhXhXtX8XyX8X'./.).qX>XJ.'.7X6XJ.D.D.[ [ T r |.6X{.T - -     s # , 5 5 O O O ",
"    X 0 = }.XXr.E.}.XXXX] I.7X+X#XuXpXlXkXdXmXBXNXZXbXnXnXyXyX`./.'.'.7X/.K.[.7X`.` ` _ t   # @ 8 M T 8   ; X       ,     , 0   ",
"# O @ s x x P.I.P.XXnXjX..).bX9X$X$XuXlXMXMXmXbXgXtX'.(./.H.%.A R.7X'.`.%.' ].].].d   0 X   , X     8 X   = X = # 4   s O 0 1 O ",
"  1 2 [ '.! M }.F. XAX).L.(.'.kXMXX.9XpXBXBXgXfX.XXXD.Z 8.` U Z ' %._ s O O ,   O O   O O   O     X           o X   O o O @ # # ",
"  7 z %.wX] 8 x | `.L.nX[ J.qXZXaXX.lXkXuX@XtXZX8X(.! Z Y 5 O 1 5 j j O   X 4 # O X O     O O X                   X O   O @ @ O ",
"  O 7 Z ] E = X (.XXF.CX_ U.hXNXiXX.iXjXVXZXnXL.}.U A ! @ , f O O   O   O O O O O O O     O O         X                 o     . ",
"+     X * 4 8 - (.F./.|.] 9XoXbXMX[ {.BXfXXXL.P.v ! @ X 5 l O j 1 @ @ < < O         O O O   O O       X                         ",
"w   # w     X X x ` F...] 7X/.ZXOXG.fXNXXX}.` M m ! -   1 p O < +     1 2 +   + O   + O   O +   X   +     O                     ",
"9     7 =   X X   .XD.|.] _._.ZXOXXXCXfX(.8X| M 8.X 0 Y O + b . +       + . + + +     + .   +       +                           ",
"+         X X - - (.J.9XG._.[.mXAX7X.X0X .A M 1Xd X X O w   + 2 + % & .     . . . . .   . . + .   +   O   +       . .           ",
"  9 q         X X 8 } K.I.7X7XtXqXqX). .E | X X *   0   #   p     + +     . +         .             O     +       o             ",
"                o   [.} K.7XDX'.].yXN I b D.    X 0 l =     X                                     # < o     q b 7 # X           ",
"                  s /.=XK.J.wX'.yXJ.R _ J.s   v   8 r =   X X                                     # # O     7 l % # o           ",
"                o     [.wXqX_.n b T `   x   r     < 4 X   @ X                                     o # # o   O # # O           o ",
"                O ;   '.'./.D.e   @ r       4 X   X X     @ X                                       #           o               ",
"                      h .   #   q     k #     0           @ X                                     o #                         o ",
"                k   w     7 #     X @     7 0             X                                       # 7       #                   ",
"                    q   o     o #   o   4 o # 7               X                                   0 h #     o                   ",
"                #     O #         0   =       ;               #                                 o h k 9     X                   ",
"7 ; @         O                 % # # O o                                         o               o       O o                   ",
"      o o o                     # # + o                                         O         o o     o O       X #                 ",
"# O           o                   .   .   .                                                           o o   o O                 ",
"+ o                             .             .     .         .                     o O     o w #     @ # +                     ",
"      o # #                       .   .   . .   . .       .                         o o   # b _ b 9     # O                     ",
"k q o       # o                                     .     .                     O o       w { /._ k           o                 ",
"T n #       # 7                   . .   .     .   .                             O     o   # b ] I q     o     #                 ",
"# O     # #                     .   . .   . .         . .                       o     #       #       # #     #                 "
};